<svg width="154" height="14" viewBox="0 0 154 14" fill="none" xmlns="http://www.w3.org/2000/svg">
<path d="M12.2195 14C12.8966 14 13.4761 13.7591 13.9578 13.2773C14.4331 12.8021 14.6707 12.2259 14.6707 11.5488V5.41602H6.90704V8.6875H11.3992V10.7285H3.63556V3.375H11.3992V4.5957H14.6707V2.55469C14.6707 1.8776 14.4331 1.29818 13.9578 0.816406C13.4761 0.341146 12.8966 0.103516 12.2195 0.103516H2.81525C2.13816 0.103516 1.56199 0.341146 1.08673 0.816406C0.60496 1.29818 0.364075 1.8776 0.364075 2.55469V11.5488C0.364075 12.2259 0.60496 12.8021 1.08673 13.2773C1.56199 13.7591 2.13816 14 2.81525 14H12.2195Z" fill="black"/>
<path d="M28.8184 0.103516L22.3242 14H25.8984L27.2656 11.1387H34.2871L35.7031 14H39.2774L32.5977 0.103516H28.8184ZM30.7129 3.94141L32.6563 7.86719H28.8281L30.7129 3.94141Z" fill="black"/>
<path d="M46.9211 8.6875H60.8176V5.41602H46.9211V8.6875ZM46.9211 3.375H60.8176V0.103516H46.9211V3.375ZM46.9211 14H60.8176V10.7285H46.9211V14Z" fill="black"/>
<path d="M83.0707 0.103516L77.4652 7.26172L71.8598 0.103516H68.4711V14H71.7426V5.25L77.4652 12.5645L83.1879 5.25V14H86.4594V0.103516H83.0707Z" fill="black"/>
<path d="M97.3746 8.6875H105.138V10.7285H97.3746V8.6875ZM97.3746 3.375H105.138V5.41602H97.3746V3.375ZM108.41 8.6875C108.41 8.10156 108.263 7.55469 107.97 7.04688C108.263 6.54557 108.41 6.00195 108.41 5.41602V3.375C108.41 2.47005 108.091 1.69857 107.453 1.06055C106.815 0.422526 106.043 0.103516 105.138 0.103516H94.1031V14H105.138C106.043 14 106.815 13.681 107.453 13.043C108.091 12.4049 108.41 11.6335 108.41 10.7285V8.6875Z" fill="black"/>
<path d="M116.063 0.103516V14H128.739V10.7285H119.335V0.103516H116.063Z" fill="black"/>
<path d="M142.877 0.103516L136.383 14H139.957L141.324 11.1387H148.346L149.762 14H153.336L146.656 0.103516H142.877ZM144.771 3.94141L146.715 7.86719H142.887L144.771 3.94141Z" fill="black"/>
</svg>
