<svg width="1142" height="37" viewBox="0 0 1142 37" fill="none" xmlns="http://www.w3.org/2000/svg">
<g opacity="0.4">
<path d="M3 35.5C3 36.3284 2.32843 37 1.5 37C0.671573 37 0 36.3284 0 35.5C0 34.6716 0.671573 34 1.5 34C2.32843 34 3 34.6716 3 35.5Z" fill="#835BFF"/>
<path d="M20 35.5C20 36.3284 19.3284 37 18.5 37C17.6716 37 17 36.3284 17 35.5C17 34.6716 17.6716 34 18.5 34C19.3284 34 20 34.6716 20 35.5Z" fill="#835BFF"/>
<path d="M37 35.5C37 36.3284 36.3284 37 35.5 37C34.6716 37 34 36.3284 34 35.5C34 34.6716 34.6716 34 35.5 34C36.3284 34 37 34.6716 37 35.5Z" fill="#835BFF"/>
<path d="M54 35.5C54 36.3284 53.3284 37 52.5 37C51.6716 37 51 36.3284 51 35.5C51 34.6716 51.6716 34 52.5 34C53.3284 34 54 34.6716 54 35.5Z" fill="#835BFF"/>
<path d="M71 35.5C71 36.3284 70.3284 37 69.5 37C68.6716 37 68 36.3284 68 35.5C68 34.6716 68.6716 34 69.5 34C70.3284 34 71 34.6716 71 35.5Z" fill="#835BFF"/>
<path d="M88 35.5C88 36.3284 87.3284 37 86.5 37C85.6716 37 85 36.3284 85 35.5C85 34.6716 85.6716 34 86.5 34C87.3284 34 88 34.6716 88 35.5Z" fill="#835BFF"/>
<path d="M3 18.5C3 19.3284 2.32843 20 1.5 20C0.671573 20 0 19.3284 0 18.5C0 17.6716 0.671573 17 1.5 17C2.32843 17 3 17.6716 3 18.5Z" fill="#835BFF"/>
<path d="M20 18.5C20 19.3284 19.3284 20 18.5 20C17.6716 20 17 19.3284 17 18.5C17 17.6716 17.6716 17 18.5 17C19.3284 17 20 17.6716 20 18.5Z" fill="#835BFF"/>
<path d="M37 18.5C37 19.3284 36.3284 20 35.5 20C34.6716 20 34 19.3284 34 18.5C34 17.6716 34.6716 17 35.5 17C36.3284 17 37 17.6716 37 18.5Z" fill="#835BFF"/>
<path d="M54 18.5C54 19.3284 53.3284 20 52.5 20C51.6716 20 51 19.3284 51 18.5C51 17.6716 51.6716 17 52.5 17C53.3284 17 54 17.6716 54 18.5Z" fill="#835BFF"/>
<path d="M71 18.5C71 19.3284 70.3284 20 69.5 20C68.6716 20 68 19.3284 68 18.5C68 17.6716 68.6716 17 69.5 17C70.3284 17 71 17.6716 71 18.5Z" fill="#835BFF"/>
<path d="M88 18.5C88 19.3284 87.3284 20 86.5 20C85.6716 20 85 19.3284 85 18.5C85 17.6716 85.6716 17 86.5 17C87.3284 17 88 17.6716 88 18.5Z" fill="#835BFF"/>
<path d="M3 1.5C3 2.32843 2.32843 3 1.5 3C0.671573 3 0 2.32843 0 1.5C0 0.671573 0.671573 0 1.5 0C2.32843 0 3 0.671573 3 1.5Z" fill="#835BFF"/>
<path d="M20 1.5C20 2.32843 19.3284 3 18.5 3C17.6716 3 17 2.32843 17 1.5C17 0.671573 17.6716 0 18.5 0C19.3284 0 20 0.671573 20 1.5Z" fill="#835BFF"/>
<path d="M37 1.5C37 2.32843 36.3284 3 35.5 3C34.6716 3 34 2.32843 34 1.5C34 0.671573 34.6716 0 35.5 0C36.3284 0 37 0.671573 37 1.5Z" fill="#835BFF"/>
<path d="M54 1.5C54 2.32843 53.3284 3 52.5 3C51.6716 3 51 2.32843 51 1.5C51 0.671573 51.6716 0 52.5 0C53.3284 0 54 0.671573 54 1.5Z" fill="#835BFF"/>
<path d="M71 1.5C71 2.32843 70.3284 3 69.5 3C68.6716 3 68 2.32843 68 1.5C68 0.671573 68.6716 0 69.5 0C70.3284 0 71 0.671573 71 1.5Z" fill="#835BFF"/>
<path d="M88 1.5C88 2.32843 87.3284 3 86.5 3C85.6716 3 85 2.32843 85 1.5C85 0.671573 85.6716 0 86.5 0C87.3284 0 88 0.671573 88 1.5Z" fill="#835BFF"/>
<path d="M105 35.5C105 36.3284 104.328 37 103.5 37C102.672 37 102 36.3284 102 35.5C102 34.6716 102.672 34 103.5 34C104.328 34 105 34.6716 105 35.5Z" fill="#835BFF"/>
<path d="M122 35.5C122 36.3284 121.328 37 120.5 37C119.672 37 119 36.3284 119 35.5C119 34.6716 119.672 34 120.5 34C121.328 34 122 34.6716 122 35.5Z" fill="#835BFF"/>
<path d="M139 35.5C139 36.3284 138.328 37 137.5 37C136.672 37 136 36.3284 136 35.5C136 34.6716 136.672 34 137.5 34C138.328 34 139 34.6716 139 35.5Z" fill="#835BFF"/>
<path d="M156 35.5C156 36.3284 155.328 37 154.5 37C153.672 37 153 36.3284 153 35.5C153 34.6716 153.672 34 154.5 34C155.328 34 156 34.6716 156 35.5Z" fill="#835BFF"/>
<path d="M173 35.5C173 36.3284 172.328 37 171.5 37C170.672 37 170 36.3284 170 35.5C170 34.6716 170.672 34 171.5 34C172.328 34 173 34.6716 173 35.5Z" fill="#835BFF"/>
<path d="M190 35.5C190 36.3284 189.328 37 188.5 37C187.672 37 187 36.3284 187 35.5C187 34.6716 187.672 34 188.5 34C189.328 34 190 34.6716 190 35.5Z" fill="#835BFF"/>
<path d="M105 18.5C105 19.3284 104.328 20 103.5 20C102.672 20 102 19.3284 102 18.5C102 17.6716 102.672 17 103.5 17C104.328 17 105 17.6716 105 18.5Z" fill="#835BFF"/>
<path d="M122 18.5C122 19.3284 121.328 20 120.5 20C119.672 20 119 19.3284 119 18.5C119 17.6716 119.672 17 120.5 17C121.328 17 122 17.6716 122 18.5Z" fill="#835BFF"/>
<path d="M139 18.5C139 19.3284 138.328 20 137.5 20C136.672 20 136 19.3284 136 18.5C136 17.6716 136.672 17 137.5 17C138.328 17 139 17.6716 139 18.5Z" fill="#835BFF"/>
<path d="M156 18.5C156 19.3284 155.328 20 154.5 20C153.672 20 153 19.3284 153 18.5C153 17.6716 153.672 17 154.5 17C155.328 17 156 17.6716 156 18.5Z" fill="#835BFF"/>
<path d="M173 18.5C173 19.3284 172.328 20 171.5 20C170.672 20 170 19.3284 170 18.5C170 17.6716 170.672 17 171.5 17C172.328 17 173 17.6716 173 18.5Z" fill="#835BFF"/>
<path d="M190 18.5C190 19.3284 189.328 20 188.5 20C187.672 20 187 19.3284 187 18.5C187 17.6716 187.672 17 188.5 17C189.328 17 190 17.6716 190 18.5Z" fill="#835BFF"/>
<path d="M105 1.5C105 2.32843 104.328 3 103.5 3C102.672 3 102 2.32843 102 1.5C102 0.671573 102.672 0 103.5 0C104.328 0 105 0.671573 105 1.5Z" fill="#835BFF"/>
<path d="M122 1.5C122 2.32843 121.328 3 120.5 3C119.672 3 119 2.32843 119 1.5C119 0.671573 119.672 0 120.5 0C121.328 0 122 0.671573 122 1.5Z" fill="#835BFF"/>
<path d="M139 1.5C139 2.32843 138.328 3 137.5 3C136.672 3 136 2.32843 136 1.5C136 0.671573 136.672 0 137.5 0C138.328 0 139 0.671573 139 1.5Z" fill="#835BFF"/>
<path d="M156 1.5C156 2.32843 155.328 3 154.5 3C153.672 3 153 2.32843 153 1.5C153 0.671573 153.672 0 154.5 0C155.328 0 156 0.671573 156 1.5Z" fill="#835BFF"/>
<path d="M173 1.5C173 2.32843 172.328 3 171.5 3C170.672 3 170 2.32843 170 1.5C170 0.671573 170.672 0 171.5 0C172.328 0 173 0.671573 173 1.5Z" fill="#835BFF"/>
<path d="M190 1.5C190 2.32843 189.328 3 188.5 3C187.672 3 187 2.32843 187 1.5C187 0.671573 187.672 0 188.5 0C189.328 0 190 0.671573 190 1.5Z" fill="#835BFF"/>
<path d="M207 35.5C207 36.3284 206.328 37 205.5 37C204.672 37 204 36.3284 204 35.5C204 34.6716 204.672 34 205.5 34C206.328 34 207 34.6716 207 35.5Z" fill="#835BFF"/>
<path d="M224 35.5C224 36.3284 223.328 37 222.5 37C221.672 37 221 36.3284 221 35.5C221 34.6716 221.672 34 222.5 34C223.328 34 224 34.6716 224 35.5Z" fill="#835BFF"/>
<path d="M241 35.5C241 36.3284 240.328 37 239.5 37C238.672 37 238 36.3284 238 35.5C238 34.6716 238.672 34 239.5 34C240.328 34 241 34.6716 241 35.5Z" fill="#835BFF"/>
<path d="M258 35.5C258 36.3284 257.328 37 256.5 37C255.672 37 255 36.3284 255 35.5C255 34.6716 255.672 34 256.5 34C257.328 34 258 34.6716 258 35.5Z" fill="#835BFF"/>
<path d="M275 35.5C275 36.3284 274.328 37 273.5 37C272.672 37 272 36.3284 272 35.5C272 34.6716 272.672 34 273.5 34C274.328 34 275 34.6716 275 35.5Z" fill="#835BFF"/>
<path d="M292 35.5C292 36.3284 291.328 37 290.5 37C289.672 37 289 36.3284 289 35.5C289 34.6716 289.672 34 290.5 34C291.328 34 292 34.6716 292 35.5Z" fill="#835BFF"/>
<path d="M207 18.5C207 19.3284 206.328 20 205.5 20C204.672 20 204 19.3284 204 18.5C204 17.6716 204.672 17 205.5 17C206.328 17 207 17.6716 207 18.5Z" fill="#835BFF"/>
<path d="M224 18.5C224 19.3284 223.328 20 222.5 20C221.672 20 221 19.3284 221 18.5C221 17.6716 221.672 17 222.5 17C223.328 17 224 17.6716 224 18.5Z" fill="#835BFF"/>
<path d="M241 18.5C241 19.3284 240.328 20 239.5 20C238.672 20 238 19.3284 238 18.5C238 17.6716 238.672 17 239.5 17C240.328 17 241 17.6716 241 18.5Z" fill="#835BFF"/>
<path d="M258 18.5C258 19.3284 257.328 20 256.5 20C255.672 20 255 19.3284 255 18.5C255 17.6716 255.672 17 256.5 17C257.328 17 258 17.6716 258 18.5Z" fill="#835BFF"/>
<path d="M275 18.5C275 19.3284 274.328 20 273.5 20C272.672 20 272 19.3284 272 18.5C272 17.6716 272.672 17 273.5 17C274.328 17 275 17.6716 275 18.5Z" fill="#835BFF"/>
<path d="M292 18.5C292 19.3284 291.328 20 290.5 20C289.672 20 289 19.3284 289 18.5C289 17.6716 289.672 17 290.5 17C291.328 17 292 17.6716 292 18.5Z" fill="#835BFF"/>
<path d="M207 1.5C207 2.32843 206.328 3 205.5 3C204.672 3 204 2.32843 204 1.5C204 0.671573 204.672 0 205.5 0C206.328 0 207 0.671573 207 1.5Z" fill="#835BFF"/>
<path d="M224 1.5C224 2.32843 223.328 3 222.5 3C221.672 3 221 2.32843 221 1.5C221 0.671573 221.672 0 222.5 0C223.328 0 224 0.671573 224 1.5Z" fill="#835BFF"/>
<path d="M241 1.5C241 2.32843 240.328 3 239.5 3C238.672 3 238 2.32843 238 1.5C238 0.671573 238.672 0 239.5 0C240.328 0 241 0.671573 241 1.5Z" fill="#835BFF"/>
<path d="M258 1.5C258 2.32843 257.328 3 256.5 3C255.672 3 255 2.32843 255 1.5C255 0.671573 255.672 0 256.5 0C257.328 0 258 0.671573 258 1.5Z" fill="#835BFF"/>
<path d="M275 1.5C275 2.32843 274.328 3 273.5 3C272.672 3 272 2.32843 272 1.5C272 0.671573 272.672 0 273.5 0C274.328 0 275 0.671573 275 1.5Z" fill="#835BFF"/>
<path d="M292 1.5C292 2.32843 291.328 3 290.5 3C289.672 3 289 2.32843 289 1.5C289 0.671573 289.672 0 290.5 0C291.328 0 292 0.671573 292 1.5Z" fill="#835BFF"/>
<path d="M309 35.5C309 36.3284 308.328 37 307.5 37C306.672 37 306 36.3284 306 35.5C306 34.6716 306.672 34 307.5 34C308.328 34 309 34.6716 309 35.5Z" fill="#835BFF"/>
<path d="M326 35.5C326 36.3284 325.328 37 324.5 37C323.672 37 323 36.3284 323 35.5C323 34.6716 323.672 34 324.5 34C325.328 34 326 34.6716 326 35.5Z" fill="#835BFF"/>
<path d="M343 35.5C343 36.3284 342.328 37 341.5 37C340.672 37 340 36.3284 340 35.5C340 34.6716 340.672 34 341.5 34C342.328 34 343 34.6716 343 35.5Z" fill="#835BFF"/>
<path d="M360 35.5C360 36.3284 359.328 37 358.5 37C357.672 37 357 36.3284 357 35.5C357 34.6716 357.672 34 358.5 34C359.328 34 360 34.6716 360 35.5Z" fill="#835BFF"/>
<path d="M377 35.5C377 36.3284 376.328 37 375.5 37C374.672 37 374 36.3284 374 35.5C374 34.6716 374.672 34 375.5 34C376.328 34 377 34.6716 377 35.5Z" fill="#835BFF"/>
<path d="M394 35.5C394 36.3284 393.328 37 392.5 37C391.672 37 391 36.3284 391 35.5C391 34.6716 391.672 34 392.5 34C393.328 34 394 34.6716 394 35.5Z" fill="#835BFF"/>
<path d="M309 18.5C309 19.3284 308.328 20 307.5 20C306.672 20 306 19.3284 306 18.5C306 17.6716 306.672 17 307.5 17C308.328 17 309 17.6716 309 18.5Z" fill="#835BFF"/>
<path d="M326 18.5C326 19.3284 325.328 20 324.5 20C323.672 20 323 19.3284 323 18.5C323 17.6716 323.672 17 324.5 17C325.328 17 326 17.6716 326 18.5Z" fill="#835BFF"/>
<path d="M343 18.5C343 19.3284 342.328 20 341.5 20C340.672 20 340 19.3284 340 18.5C340 17.6716 340.672 17 341.5 17C342.328 17 343 17.6716 343 18.5Z" fill="#835BFF"/>
<path d="M360 18.5C360 19.3284 359.328 20 358.5 20C357.672 20 357 19.3284 357 18.5C357 17.6716 357.672 17 358.5 17C359.328 17 360 17.6716 360 18.5Z" fill="#835BFF"/>
<path d="M377 18.5C377 19.3284 376.328 20 375.5 20C374.672 20 374 19.3284 374 18.5C374 17.6716 374.672 17 375.5 17C376.328 17 377 17.6716 377 18.5Z" fill="#835BFF"/>
<path d="M394 18.5C394 19.3284 393.328 20 392.5 20C391.672 20 391 19.3284 391 18.5C391 17.6716 391.672 17 392.5 17C393.328 17 394 17.6716 394 18.5Z" fill="#835BFF"/>
<path d="M309 1.5C309 2.32843 308.328 3 307.5 3C306.672 3 306 2.32843 306 1.5C306 0.671573 306.672 0 307.5 0C308.328 0 309 0.671573 309 1.5Z" fill="#835BFF"/>
<path d="M326 1.5C326 2.32843 325.328 3 324.5 3C323.672 3 323 2.32843 323 1.5C323 0.671573 323.672 0 324.5 0C325.328 0 326 0.671573 326 1.5Z" fill="#835BFF"/>
<path d="M343 1.5C343 2.32843 342.328 3 341.5 3C340.672 3 340 2.32843 340 1.5C340 0.671573 340.672 0 341.5 0C342.328 0 343 0.671573 343 1.5Z" fill="#835BFF"/>
<path d="M360 1.5C360 2.32843 359.328 3 358.5 3C357.672 3 357 2.32843 357 1.5C357 0.671573 357.672 0 358.5 0C359.328 0 360 0.671573 360 1.5Z" fill="#835BFF"/>
<path d="M377 1.5C377 2.32843 376.328 3 375.5 3C374.672 3 374 2.32843 374 1.5C374 0.671573 374.672 0 375.5 0C376.328 0 377 0.671573 377 1.5Z" fill="#835BFF"/>
<path d="M394 1.5C394 2.32843 393.328 3 392.5 3C391.672 3 391 2.32843 391 1.5C391 0.671573 391.672 0 392.5 0C393.328 0 394 0.671573 394 1.5Z" fill="#835BFF"/>
<path d="M411 35.5C411 36.3284 410.328 37 409.5 37C408.672 37 408 36.3284 408 35.5C408 34.6716 408.672 34 409.5 34C410.328 34 411 34.6716 411 35.5Z" fill="#835BFF"/>
<path d="M428 35.5C428 36.3284 427.328 37 426.5 37C425.672 37 425 36.3284 425 35.5C425 34.6716 425.672 34 426.5 34C427.328 34 428 34.6716 428 35.5Z" fill="#835BFF"/>
<path d="M445 35.5C445 36.3284 444.328 37 443.5 37C442.672 37 442 36.3284 442 35.5C442 34.6716 442.672 34 443.5 34C444.328 34 445 34.6716 445 35.5Z" fill="#835BFF"/>
<path d="M462 35.5C462 36.3284 461.328 37 460.5 37C459.672 37 459 36.3284 459 35.5C459 34.6716 459.672 34 460.5 34C461.328 34 462 34.6716 462 35.5Z" fill="#835BFF"/>
<path d="M479 35.5C479 36.3284 478.328 37 477.5 37C476.672 37 476 36.3284 476 35.5C476 34.6716 476.672 34 477.5 34C478.328 34 479 34.6716 479 35.5Z" fill="#835BFF"/>
<path d="M496 35.5C496 36.3284 495.328 37 494.5 37C493.672 37 493 36.3284 493 35.5C493 34.6716 493.672 34 494.5 34C495.328 34 496 34.6716 496 35.5Z" fill="#835BFF"/>
<path d="M411 18.5C411 19.3284 410.328 20 409.5 20C408.672 20 408 19.3284 408 18.5C408 17.6716 408.672 17 409.5 17C410.328 17 411 17.6716 411 18.5Z" fill="#835BFF"/>
<path d="M428 18.5C428 19.3284 427.328 20 426.5 20C425.672 20 425 19.3284 425 18.5C425 17.6716 425.672 17 426.5 17C427.328 17 428 17.6716 428 18.5Z" fill="#835BFF"/>
<path d="M445 18.5C445 19.3284 444.328 20 443.5 20C442.672 20 442 19.3284 442 18.5C442 17.6716 442.672 17 443.5 17C444.328 17 445 17.6716 445 18.5Z" fill="#835BFF"/>
<path d="M462 18.5C462 19.3284 461.328 20 460.5 20C459.672 20 459 19.3284 459 18.5C459 17.6716 459.672 17 460.5 17C461.328 17 462 17.6716 462 18.5Z" fill="#835BFF"/>
<path d="M479 18.5C479 19.3284 478.328 20 477.5 20C476.672 20 476 19.3284 476 18.5C476 17.6716 476.672 17 477.5 17C478.328 17 479 17.6716 479 18.5Z" fill="#835BFF"/>
<path d="M496 18.5C496 19.3284 495.328 20 494.5 20C493.672 20 493 19.3284 493 18.5C493 17.6716 493.672 17 494.5 17C495.328 17 496 17.6716 496 18.5Z" fill="#835BFF"/>
<path d="M411 1.5C411 2.32843 410.328 3 409.5 3C408.672 3 408 2.32843 408 1.5C408 0.671573 408.672 0 409.5 0C410.328 0 411 0.671573 411 1.5Z" fill="#835BFF"/>
<path d="M428 1.5C428 2.32843 427.328 3 426.5 3C425.672 3 425 2.32843 425 1.5C425 0.671573 425.672 0 426.5 0C427.328 0 428 0.671573 428 1.5Z" fill="#835BFF"/>
<path d="M445 1.5C445 2.32843 444.328 3 443.5 3C442.672 3 442 2.32843 442 1.5C442 0.671573 442.672 0 443.5 0C444.328 0 445 0.671573 445 1.5Z" fill="#835BFF"/>
<path d="M462 1.5C462 2.32843 461.328 3 460.5 3C459.672 3 459 2.32843 459 1.5C459 0.671573 459.672 0 460.5 0C461.328 0 462 0.671573 462 1.5Z" fill="#835BFF"/>
<path d="M479 1.5C479 2.32843 478.328 3 477.5 3C476.672 3 476 2.32843 476 1.5C476 0.671573 476.672 0 477.5 0C478.328 0 479 0.671573 479 1.5Z" fill="#835BFF"/>
<path d="M496 1.5C496 2.32843 495.328 3 494.5 3C493.672 3 493 2.32843 493 1.5C493 0.671573 493.672 0 494.5 0C495.328 0 496 0.671573 496 1.5Z" fill="#835BFF"/>
<path d="M513 35.5C513 36.3284 512.328 37 511.5 37C510.672 37 510 36.3284 510 35.5C510 34.6716 510.672 34 511.5 34C512.328 34 513 34.6716 513 35.5Z" fill="#835BFF"/>
<path d="M530 35.5C530 36.3284 529.328 37 528.5 37C527.672 37 527 36.3284 527 35.5C527 34.6716 527.672 34 528.5 34C529.328 34 530 34.6716 530 35.5Z" fill="#835BFF"/>
<path d="M547 35.5C547 36.3284 546.328 37 545.5 37C544.672 37 544 36.3284 544 35.5C544 34.6716 544.672 34 545.5 34C546.328 34 547 34.6716 547 35.5Z" fill="#835BFF"/>
<path d="M564 35.5C564 36.3284 563.328 37 562.5 37C561.672 37 561 36.3284 561 35.5C561 34.6716 561.672 34 562.5 34C563.328 34 564 34.6716 564 35.5Z" fill="#835BFF"/>
<path d="M581 35.5C581 36.3284 580.328 37 579.5 37C578.672 37 578 36.3284 578 35.5C578 34.6716 578.672 34 579.5 34C580.328 34 581 34.6716 581 35.5Z" fill="#835BFF"/>
<path d="M598 35.5C598 36.3284 597.328 37 596.5 37C595.672 37 595 36.3284 595 35.5C595 34.6716 595.672 34 596.5 34C597.328 34 598 34.6716 598 35.5Z" fill="#835BFF"/>
<path d="M513 18.5C513 19.3284 512.328 20 511.5 20C510.672 20 510 19.3284 510 18.5C510 17.6716 510.672 17 511.5 17C512.328 17 513 17.6716 513 18.5Z" fill="#835BFF"/>
<path d="M530 18.5C530 19.3284 529.328 20 528.5 20C527.672 20 527 19.3284 527 18.5C527 17.6716 527.672 17 528.5 17C529.328 17 530 17.6716 530 18.5Z" fill="#835BFF"/>
<path d="M547 18.5C547 19.3284 546.328 20 545.5 20C544.672 20 544 19.3284 544 18.5C544 17.6716 544.672 17 545.5 17C546.328 17 547 17.6716 547 18.5Z" fill="#835BFF"/>
<path d="M564 18.5C564 19.3284 563.328 20 562.5 20C561.672 20 561 19.3284 561 18.5C561 17.6716 561.672 17 562.5 17C563.328 17 564 17.6716 564 18.5Z" fill="#835BFF"/>
<path d="M581 18.5C581 19.3284 580.328 20 579.5 20C578.672 20 578 19.3284 578 18.5C578 17.6716 578.672 17 579.5 17C580.328 17 581 17.6716 581 18.5Z" fill="#835BFF"/>
<path d="M598 18.5C598 19.3284 597.328 20 596.5 20C595.672 20 595 19.3284 595 18.5C595 17.6716 595.672 17 596.5 17C597.328 17 598 17.6716 598 18.5Z" fill="#835BFF"/>
<path d="M513 1.5C513 2.32843 512.328 3 511.5 3C510.672 3 510 2.32843 510 1.5C510 0.671573 510.672 0 511.5 0C512.328 0 513 0.671573 513 1.5Z" fill="#835BFF"/>
<path d="M530 1.5C530 2.32843 529.328 3 528.5 3C527.672 3 527 2.32843 527 1.5C527 0.671573 527.672 0 528.5 0C529.328 0 530 0.671573 530 1.5Z" fill="#835BFF"/>
<path d="M547 1.5C547 2.32843 546.328 3 545.5 3C544.672 3 544 2.32843 544 1.5C544 0.671573 544.672 0 545.5 0C546.328 0 547 0.671573 547 1.5Z" fill="#835BFF"/>
<path d="M564 1.5C564 2.32843 563.328 3 562.5 3C561.672 3 561 2.32843 561 1.5C561 0.671573 561.672 0 562.5 0C563.328 0 564 0.671573 564 1.5Z" fill="#835BFF"/>
<path d="M581 1.5C581 2.32843 580.328 3 579.5 3C578.672 3 578 2.32843 578 1.5C578 0.671573 578.672 0 579.5 0C580.328 0 581 0.671573 581 1.5Z" fill="#835BFF"/>
<path d="M598 1.5C598 2.32843 597.328 3 596.5 3C595.672 3 595 2.32843 595 1.5C595 0.671573 595.672 0 596.5 0C597.328 0 598 0.671573 598 1.5Z" fill="#835BFF"/>
<path d="M615 35.5C615 36.3284 614.328 37 613.5 37C612.672 37 612 36.3284 612 35.5C612 34.6716 612.672 34 613.5 34C614.328 34 615 34.6716 615 35.5Z" fill="#835BFF"/>
<path d="M632 35.5C632 36.3284 631.328 37 630.5 37C629.672 37 629 36.3284 629 35.5C629 34.6716 629.672 34 630.5 34C631.328 34 632 34.6716 632 35.5Z" fill="#835BFF"/>
<path d="M649 35.5C649 36.3284 648.328 37 647.5 37C646.672 37 646 36.3284 646 35.5C646 34.6716 646.672 34 647.5 34C648.328 34 649 34.6716 649 35.5Z" fill="#835BFF"/>
<path d="M666 35.5C666 36.3284 665.328 37 664.5 37C663.672 37 663 36.3284 663 35.5C663 34.6716 663.672 34 664.5 34C665.328 34 666 34.6716 666 35.5Z" fill="#835BFF"/>
<path d="M683 35.5C683 36.3284 682.328 37 681.5 37C680.672 37 680 36.3284 680 35.5C680 34.6716 680.672 34 681.5 34C682.328 34 683 34.6716 683 35.5Z" fill="#835BFF"/>
<path d="M700 35.5C700 36.3284 699.328 37 698.5 37C697.672 37 697 36.3284 697 35.5C697 34.6716 697.672 34 698.5 34C699.328 34 700 34.6716 700 35.5Z" fill="#835BFF"/>
<path d="M615 18.5C615 19.3284 614.328 20 613.5 20C612.672 20 612 19.3284 612 18.5C612 17.6716 612.672 17 613.5 17C614.328 17 615 17.6716 615 18.5Z" fill="#835BFF"/>
<path d="M632 18.5C632 19.3284 631.328 20 630.5 20C629.672 20 629 19.3284 629 18.5C629 17.6716 629.672 17 630.5 17C631.328 17 632 17.6716 632 18.5Z" fill="#835BFF"/>
<path d="M649 18.5C649 19.3284 648.328 20 647.5 20C646.672 20 646 19.3284 646 18.5C646 17.6716 646.672 17 647.5 17C648.328 17 649 17.6716 649 18.5Z" fill="#835BFF"/>
<path d="M666 18.5C666 19.3284 665.328 20 664.5 20C663.672 20 663 19.3284 663 18.5C663 17.6716 663.672 17 664.5 17C665.328 17 666 17.6716 666 18.5Z" fill="#835BFF"/>
<path d="M683 18.5C683 19.3284 682.328 20 681.5 20C680.672 20 680 19.3284 680 18.5C680 17.6716 680.672 17 681.5 17C682.328 17 683 17.6716 683 18.5Z" fill="#835BFF"/>
<path d="M700 18.5C700 19.3284 699.328 20 698.5 20C697.672 20 697 19.3284 697 18.5C697 17.6716 697.672 17 698.5 17C699.328 17 700 17.6716 700 18.5Z" fill="#835BFF"/>
<path d="M615 1.5C615 2.32843 614.328 3 613.5 3C612.672 3 612 2.32843 612 1.5C612 0.671573 612.672 0 613.5 0C614.328 0 615 0.671573 615 1.5Z" fill="#835BFF"/>
<path d="M632 1.5C632 2.32843 631.328 3 630.5 3C629.672 3 629 2.32843 629 1.5C629 0.671573 629.672 0 630.5 0C631.328 0 632 0.671573 632 1.5Z" fill="#835BFF"/>
<path d="M649 1.5C649 2.32843 648.328 3 647.5 3C646.672 3 646 2.32843 646 1.5C646 0.671573 646.672 0 647.5 0C648.328 0 649 0.671573 649 1.5Z" fill="#835BFF"/>
<path d="M666 1.5C666 2.32843 665.328 3 664.5 3C663.672 3 663 2.32843 663 1.5C663 0.671573 663.672 0 664.5 0C665.328 0 666 0.671573 666 1.5Z" fill="#835BFF"/>
<path d="M683 1.5C683 2.32843 682.328 3 681.5 3C680.672 3 680 2.32843 680 1.5C680 0.671573 680.672 0 681.5 0C682.328 0 683 0.671573 683 1.5Z" fill="#835BFF"/>
<path d="M700 1.5C700 2.32843 699.328 3 698.5 3C697.672 3 697 2.32843 697 1.5C697 0.671573 697.672 0 698.5 0C699.328 0 700 0.671573 700 1.5Z" fill="#835BFF"/>
<path d="M717 35.5C717 36.3284 716.328 37 715.5 37C714.672 37 714 36.3284 714 35.5C714 34.6716 714.672 34 715.5 34C716.328 34 717 34.6716 717 35.5Z" fill="#835BFF"/>
<path d="M734 35.5C734 36.3284 733.328 37 732.5 37C731.672 37 731 36.3284 731 35.5C731 34.6716 731.672 34 732.5 34C733.328 34 734 34.6716 734 35.5Z" fill="#835BFF"/>
<path d="M751 35.5C751 36.3284 750.328 37 749.5 37C748.672 37 748 36.3284 748 35.5C748 34.6716 748.672 34 749.5 34C750.328 34 751 34.6716 751 35.5Z" fill="#835BFF"/>
<path d="M768 35.5C768 36.3284 767.328 37 766.5 37C765.672 37 765 36.3284 765 35.5C765 34.6716 765.672 34 766.5 34C767.328 34 768 34.6716 768 35.5Z" fill="#835BFF"/>
<path d="M785 35.5C785 36.3284 784.328 37 783.5 37C782.672 37 782 36.3284 782 35.5C782 34.6716 782.672 34 783.5 34C784.328 34 785 34.6716 785 35.5Z" fill="#835BFF"/>
<path d="M802 35.5C802 36.3284 801.328 37 800.5 37C799.672 37 799 36.3284 799 35.5C799 34.6716 799.672 34 800.5 34C801.328 34 802 34.6716 802 35.5Z" fill="#835BFF"/>
<path d="M717 18.5C717 19.3284 716.328 20 715.5 20C714.672 20 714 19.3284 714 18.5C714 17.6716 714.672 17 715.5 17C716.328 17 717 17.6716 717 18.5Z" fill="#835BFF"/>
<path d="M734 18.5C734 19.3284 733.328 20 732.5 20C731.672 20 731 19.3284 731 18.5C731 17.6716 731.672 17 732.5 17C733.328 17 734 17.6716 734 18.5Z" fill="#835BFF"/>
<path d="M751 18.5C751 19.3284 750.328 20 749.5 20C748.672 20 748 19.3284 748 18.5C748 17.6716 748.672 17 749.5 17C750.328 17 751 17.6716 751 18.5Z" fill="#835BFF"/>
<path d="M768 18.5C768 19.3284 767.328 20 766.5 20C765.672 20 765 19.3284 765 18.5C765 17.6716 765.672 17 766.5 17C767.328 17 768 17.6716 768 18.5Z" fill="#835BFF"/>
<path d="M785 18.5C785 19.3284 784.328 20 783.5 20C782.672 20 782 19.3284 782 18.5C782 17.6716 782.672 17 783.5 17C784.328 17 785 17.6716 785 18.5Z" fill="#835BFF"/>
<path d="M802 18.5C802 19.3284 801.328 20 800.5 20C799.672 20 799 19.3284 799 18.5C799 17.6716 799.672 17 800.5 17C801.328 17 802 17.6716 802 18.5Z" fill="#835BFF"/>
<path d="M717 1.5C717 2.32843 716.328 3 715.5 3C714.672 3 714 2.32843 714 1.5C714 0.671573 714.672 0 715.5 0C716.328 0 717 0.671573 717 1.5Z" fill="#835BFF"/>
<path d="M734 1.5C734 2.32843 733.328 3 732.5 3C731.672 3 731 2.32843 731 1.5C731 0.671573 731.672 0 732.5 0C733.328 0 734 0.671573 734 1.5Z" fill="#835BFF"/>
<path d="M751 1.5C751 2.32843 750.328 3 749.5 3C748.672 3 748 2.32843 748 1.5C748 0.671573 748.672 0 749.5 0C750.328 0 751 0.671573 751 1.5Z" fill="#835BFF"/>
<path d="M768 1.5C768 2.32843 767.328 3 766.5 3C765.672 3 765 2.32843 765 1.5C765 0.671573 765.672 0 766.5 0C767.328 0 768 0.671573 768 1.5Z" fill="#835BFF"/>
<path d="M785 1.5C785 2.32843 784.328 3 783.5 3C782.672 3 782 2.32843 782 1.5C782 0.671573 782.672 0 783.5 0C784.328 0 785 0.671573 785 1.5Z" fill="#835BFF"/>
<path d="M802 1.5C802 2.32843 801.328 3 800.5 3C799.672 3 799 2.32843 799 1.5C799 0.671573 799.672 0 800.5 0C801.328 0 802 0.671573 802 1.5Z" fill="#835BFF"/>
<path d="M819 35.5C819 36.3284 818.328 37 817.5 37C816.672 37 816 36.3284 816 35.5C816 34.6716 816.672 34 817.5 34C818.328 34 819 34.6716 819 35.5Z" fill="#835BFF"/>
<path d="M836 35.5C836 36.3284 835.328 37 834.5 37C833.672 37 833 36.3284 833 35.5C833 34.6716 833.672 34 834.5 34C835.328 34 836 34.6716 836 35.5Z" fill="#835BFF"/>
<path d="M853 35.5C853 36.3284 852.328 37 851.5 37C850.672 37 850 36.3284 850 35.5C850 34.6716 850.672 34 851.5 34C852.328 34 853 34.6716 853 35.5Z" fill="#835BFF"/>
<path d="M870 35.5C870 36.3284 869.328 37 868.5 37C867.672 37 867 36.3284 867 35.5C867 34.6716 867.672 34 868.5 34C869.328 34 870 34.6716 870 35.5Z" fill="#835BFF"/>
<path d="M887 35.5C887 36.3284 886.328 37 885.5 37C884.672 37 884 36.3284 884 35.5C884 34.6716 884.672 34 885.5 34C886.328 34 887 34.6716 887 35.5Z" fill="#835BFF"/>
<path d="M904 35.5C904 36.3284 903.328 37 902.5 37C901.672 37 901 36.3284 901 35.5C901 34.6716 901.672 34 902.5 34C903.328 34 904 34.6716 904 35.5Z" fill="#835BFF"/>
<path d="M819 18.5C819 19.3284 818.328 20 817.5 20C816.672 20 816 19.3284 816 18.5C816 17.6716 816.672 17 817.5 17C818.328 17 819 17.6716 819 18.5Z" fill="#835BFF"/>
<path d="M836 18.5C836 19.3284 835.328 20 834.5 20C833.672 20 833 19.3284 833 18.5C833 17.6716 833.672 17 834.5 17C835.328 17 836 17.6716 836 18.5Z" fill="#835BFF"/>
<path d="M853 18.5C853 19.3284 852.328 20 851.5 20C850.672 20 850 19.3284 850 18.5C850 17.6716 850.672 17 851.5 17C852.328 17 853 17.6716 853 18.5Z" fill="#835BFF"/>
<path d="M870 18.5C870 19.3284 869.328 20 868.5 20C867.672 20 867 19.3284 867 18.5C867 17.6716 867.672 17 868.5 17C869.328 17 870 17.6716 870 18.5Z" fill="#835BFF"/>
<path d="M887 18.5C887 19.3284 886.328 20 885.5 20C884.672 20 884 19.3284 884 18.5C884 17.6716 884.672 17 885.5 17C886.328 17 887 17.6716 887 18.5Z" fill="#835BFF"/>
<path d="M904 18.5C904 19.3284 903.328 20 902.5 20C901.672 20 901 19.3284 901 18.5C901 17.6716 901.672 17 902.5 17C903.328 17 904 17.6716 904 18.5Z" fill="#835BFF"/>
<path d="M819 1.5C819 2.32843 818.328 3 817.5 3C816.672 3 816 2.32843 816 1.5C816 0.671573 816.672 0 817.5 0C818.328 0 819 0.671573 819 1.5Z" fill="#835BFF"/>
<path d="M836 1.5C836 2.32843 835.328 3 834.5 3C833.672 3 833 2.32843 833 1.5C833 0.671573 833.672 0 834.5 0C835.328 0 836 0.671573 836 1.5Z" fill="#835BFF"/>
<path d="M853 1.5C853 2.32843 852.328 3 851.5 3C850.672 3 850 2.32843 850 1.5C850 0.671573 850.672 0 851.5 0C852.328 0 853 0.671573 853 1.5Z" fill="#835BFF"/>
<path d="M870 1.5C870 2.32843 869.328 3 868.5 3C867.672 3 867 2.32843 867 1.5C867 0.671573 867.672 0 868.5 0C869.328 0 870 0.671573 870 1.5Z" fill="#835BFF"/>
<path d="M887 1.5C887 2.32843 886.328 3 885.5 3C884.672 3 884 2.32843 884 1.5C884 0.671573 884.672 0 885.5 0C886.328 0 887 0.671573 887 1.5Z" fill="#835BFF"/>
<path d="M904 1.5C904 2.32843 903.328 3 902.5 3C901.672 3 901 2.32843 901 1.5C901 0.671573 901.672 0 902.5 0C903.328 0 904 0.671573 904 1.5Z" fill="#835BFF"/>
<path d="M921 35.5C921 36.3284 920.328 37 919.5 37C918.672 37 918 36.3284 918 35.5C918 34.6716 918.672 34 919.5 34C920.328 34 921 34.6716 921 35.5Z" fill="#835BFF"/>
<path d="M938 35.5C938 36.3284 937.328 37 936.5 37C935.672 37 935 36.3284 935 35.5C935 34.6716 935.672 34 936.5 34C937.328 34 938 34.6716 938 35.5Z" fill="#835BFF"/>
<path d="M955 35.5C955 36.3284 954.328 37 953.5 37C952.672 37 952 36.3284 952 35.5C952 34.6716 952.672 34 953.5 34C954.328 34 955 34.6716 955 35.5Z" fill="#835BFF"/>
<path d="M972 35.5C972 36.3284 971.328 37 970.5 37C969.672 37 969 36.3284 969 35.5C969 34.6716 969.672 34 970.5 34C971.328 34 972 34.6716 972 35.5Z" fill="#835BFF"/>
<path d="M989 35.5C989 36.3284 988.328 37 987.5 37C986.672 37 986 36.3284 986 35.5C986 34.6716 986.672 34 987.5 34C988.328 34 989 34.6716 989 35.5Z" fill="#835BFF"/>
<path d="M1006 35.5C1006 36.3284 1005.33 37 1004.5 37C1003.67 37 1003 36.3284 1003 35.5C1003 34.6716 1003.67 34 1004.5 34C1005.33 34 1006 34.6716 1006 35.5Z" fill="#835BFF"/>
<path d="M921 18.5C921 19.3284 920.328 20 919.5 20C918.672 20 918 19.3284 918 18.5C918 17.6716 918.672 17 919.5 17C920.328 17 921 17.6716 921 18.5Z" fill="#835BFF"/>
<path d="M938 18.5C938 19.3284 937.328 20 936.5 20C935.672 20 935 19.3284 935 18.5C935 17.6716 935.672 17 936.5 17C937.328 17 938 17.6716 938 18.5Z" fill="#835BFF"/>
<path d="M955 18.5C955 19.3284 954.328 20 953.5 20C952.672 20 952 19.3284 952 18.5C952 17.6716 952.672 17 953.5 17C954.328 17 955 17.6716 955 18.5Z" fill="#835BFF"/>
<path d="M972 18.5C972 19.3284 971.328 20 970.5 20C969.672 20 969 19.3284 969 18.5C969 17.6716 969.672 17 970.5 17C971.328 17 972 17.6716 972 18.5Z" fill="#835BFF"/>
<path d="M989 18.5C989 19.3284 988.328 20 987.5 20C986.672 20 986 19.3284 986 18.5C986 17.6716 986.672 17 987.5 17C988.328 17 989 17.6716 989 18.5Z" fill="#835BFF"/>
<path d="M1006 18.5C1006 19.3284 1005.33 20 1004.5 20C1003.67 20 1003 19.3284 1003 18.5C1003 17.6716 1003.67 17 1004.5 17C1005.33 17 1006 17.6716 1006 18.5Z" fill="#835BFF"/>
<path d="M921 1.5C921 2.32843 920.328 3 919.5 3C918.672 3 918 2.32843 918 1.5C918 0.671573 918.672 0 919.5 0C920.328 0 921 0.671573 921 1.5Z" fill="#835BFF"/>
<path d="M938 1.5C938 2.32843 937.328 3 936.5 3C935.672 3 935 2.32843 935 1.5C935 0.671573 935.672 0 936.5 0C937.328 0 938 0.671573 938 1.5Z" fill="#835BFF"/>
<path d="M955 1.5C955 2.32843 954.328 3 953.5 3C952.672 3 952 2.32843 952 1.5C952 0.671573 952.672 0 953.5 0C954.328 0 955 0.671573 955 1.5Z" fill="#835BFF"/>
<path d="M972 1.5C972 2.32843 971.328 3 970.5 3C969.672 3 969 2.32843 969 1.5C969 0.671573 969.672 0 970.5 0C971.328 0 972 0.671573 972 1.5Z" fill="#835BFF"/>
<path d="M989 1.5C989 2.32843 988.328 3 987.5 3C986.672 3 986 2.32843 986 1.5C986 0.671573 986.672 0 987.5 0C988.328 0 989 0.671573 989 1.5Z" fill="#835BFF"/>
<path d="M1006 1.5C1006 2.32843 1005.33 3 1004.5 3C1003.67 3 1003 2.32843 1003 1.5C1003 0.671573 1003.67 0 1004.5 0C1005.33 0 1006 0.671573 1006 1.5Z" fill="#835BFF"/>
<path d="M1023 35.5C1023 36.3284 1022.33 37 1021.5 37C1020.67 37 1020 36.3284 1020 35.5C1020 34.6716 1020.67 34 1021.5 34C1022.33 34 1023 34.6716 1023 35.5Z" fill="#835BFF"/>
<path d="M1040 35.5C1040 36.3284 1039.33 37 1038.5 37C1037.67 37 1037 36.3284 1037 35.5C1037 34.6716 1037.67 34 1038.5 34C1039.33 34 1040 34.6716 1040 35.5Z" fill="#835BFF"/>
<path d="M1057 35.5C1057 36.3284 1056.33 37 1055.5 37C1054.67 37 1054 36.3284 1054 35.5C1054 34.6716 1054.67 34 1055.5 34C1056.33 34 1057 34.6716 1057 35.5Z" fill="#835BFF"/>
<path d="M1074 35.5C1074 36.3284 1073.33 37 1072.5 37C1071.67 37 1071 36.3284 1071 35.5C1071 34.6716 1071.67 34 1072.5 34C1073.33 34 1074 34.6716 1074 35.5Z" fill="#835BFF"/>
<path d="M1091 35.5C1091 36.3284 1090.33 37 1089.5 37C1088.67 37 1088 36.3284 1088 35.5C1088 34.6716 1088.67 34 1089.5 34C1090.33 34 1091 34.6716 1091 35.5Z" fill="#835BFF"/>
<path d="M1108 35.5C1108 36.3284 1107.33 37 1106.5 37C1105.67 37 1105 36.3284 1105 35.5C1105 34.6716 1105.67 34 1106.5 34C1107.33 34 1108 34.6716 1108 35.5Z" fill="#835BFF"/>
<path d="M1023 18.5C1023 19.3284 1022.33 20 1021.5 20C1020.67 20 1020 19.3284 1020 18.5C1020 17.6716 1020.67 17 1021.5 17C1022.33 17 1023 17.6716 1023 18.5Z" fill="#835BFF"/>
<path d="M1040 18.5C1040 19.3284 1039.33 20 1038.5 20C1037.67 20 1037 19.3284 1037 18.5C1037 17.6716 1037.67 17 1038.5 17C1039.33 17 1040 17.6716 1040 18.5Z" fill="#835BFF"/>
<path d="M1057 18.5C1057 19.3284 1056.33 20 1055.5 20C1054.67 20 1054 19.3284 1054 18.5C1054 17.6716 1054.67 17 1055.5 17C1056.33 17 1057 17.6716 1057 18.5Z" fill="#835BFF"/>
<path d="M1074 18.5C1074 19.3284 1073.33 20 1072.5 20C1071.67 20 1071 19.3284 1071 18.5C1071 17.6716 1071.67 17 1072.5 17C1073.33 17 1074 17.6716 1074 18.5Z" fill="#835BFF"/>
<path d="M1091 18.5C1091 19.3284 1090.33 20 1089.5 20C1088.67 20 1088 19.3284 1088 18.5C1088 17.6716 1088.67 17 1089.5 17C1090.33 17 1091 17.6716 1091 18.5Z" fill="#835BFF"/>
<path d="M1108 18.5C1108 19.3284 1107.33 20 1106.5 20C1105.67 20 1105 19.3284 1105 18.5C1105 17.6716 1105.67 17 1106.5 17C1107.33 17 1108 17.6716 1108 18.5Z" fill="#835BFF"/>
<path d="M1023 1.5C1023 2.32843 1022.33 3 1021.5 3C1020.67 3 1020 2.32843 1020 1.5C1020 0.671573 1020.67 0 1021.5 0C1022.33 0 1023 0.671573 1023 1.5Z" fill="#835BFF"/>
<path d="M1040 1.5C1040 2.32843 1039.33 3 1038.5 3C1037.67 3 1037 2.32843 1037 1.5C1037 0.671573 1037.67 0 1038.5 0C1039.33 0 1040 0.671573 1040 1.5Z" fill="#835BFF"/>
<path d="M1057 1.5C1057 2.32843 1056.33 3 1055.5 3C1054.67 3 1054 2.32843 1054 1.5C1054 0.671573 1054.67 0 1055.5 0C1056.33 0 1057 0.671573 1057 1.5Z" fill="#835BFF"/>
<path d="M1074 1.5C1074 2.32843 1073.33 3 1072.5 3C1071.67 3 1071 2.32843 1071 1.5C1071 0.671573 1071.67 0 1072.5 0C1073.33 0 1074 0.671573 1074 1.5Z" fill="#835BFF"/>
<path d="M1091 1.5C1091 2.32843 1090.33 3 1089.5 3C1088.67 3 1088 2.32843 1088 1.5C1088 0.671573 1088.67 0 1089.5 0C1090.33 0 1091 0.671573 1091 1.5Z" fill="#835BFF"/>
<path d="M1108 1.5C1108 2.32843 1107.33 3 1106.5 3C1105.67 3 1105 2.32843 1105 1.5C1105 0.671573 1105.67 0 1106.5 0C1107.33 0 1108 0.671573 1108 1.5Z" fill="#835BFF"/>
<path d="M1125 35.5C1125 36.3284 1124.33 37 1123.5 37C1122.67 37 1122 36.3284 1122 35.5C1122 34.6716 1122.67 34 1123.5 34C1124.33 34 1125 34.6716 1125 35.5Z" fill="#835BFF"/>
<path d="M1142 35.5C1142 36.3284 1141.33 37 1140.5 37C1139.67 37 1139 36.3284 1139 35.5C1139 34.6716 1139.67 34 1140.5 34C1141.33 34 1142 34.6716 1142 35.5Z" fill="#835BFF"/>
<path d="M1125 18.5C1125 19.3284 1124.33 20 1123.5 20C1122.67 20 1122 19.3284 1122 18.5C1122 17.6716 1122.67 17 1123.5 17C1124.33 17 1125 17.6716 1125 18.5Z" fill="#835BFF"/>
<path d="M1142 18.5C1142 19.3284 1141.33 20 1140.5 20C1139.67 20 1139 19.3284 1139 18.5C1139 17.6716 1139.67 17 1140.5 17C1141.33 17 1142 17.6716 1142 18.5Z" fill="#835BFF"/>
<path d="M1125 1.5C1125 2.32843 1124.33 3 1123.5 3C1122.67 3 1122 2.32843 1122 1.5C1122 0.671573 1122.67 0 1123.5 0C1124.33 0 1125 0.671573 1125 1.5Z" fill="#835BFF"/>
<path d="M1142 1.5C1142 2.32843 1141.33 3 1140.5 3C1139.67 3 1139 2.32843 1139 1.5C1139 0.671573 1139.67 0 1140.5 0C1141.33 0 1142 0.671573 1142 1.5Z" fill="#835BFF"/>
</g>
</svg>
