<svg width="88" height="122" viewBox="0 0 88 122" fill="none" xmlns="http://www.w3.org/2000/svg">
<g opacity="0.3">
<path d="M3 120.5C3 121.328 2.32843 122 1.5 122C0.671573 122 0 121.328 0 120.5C0 119.672 0.671573 119 1.5 119C2.32843 119 3 119.672 3 120.5Z" fill="#835BFF"/>
<path d="M20 120.5C20 121.328 19.3284 122 18.5 122C17.6716 122 17 121.328 17 120.5C17 119.672 17.6716 119 18.5 119C19.3284 119 20 119.672 20 120.5Z" fill="#835BFF"/>
<path d="M37 120.5C37 121.328 36.3284 122 35.5 122C34.6716 122 34 121.328 34 120.5C34 119.672 34.6716 119 35.5 119C36.3284 119 37 119.672 37 120.5Z" fill="#835BFF"/>
<path d="M54 120.5C54 121.328 53.3284 122 52.5 122C51.6716 122 51 121.328 51 120.5C51 119.672 51.6716 119 52.5 119C53.3284 119 54 119.672 54 120.5Z" fill="#835BFF"/>
<path d="M71 120.5C71 121.328 70.3284 122 69.5 122C68.6716 122 68 121.328 68 120.5C68 119.672 68.6716 119 69.5 119C70.3284 119 71 119.672 71 120.5Z" fill="#835BFF"/>
<path d="M88 120.5C88 121.328 87.3284 122 86.5 122C85.6716 122 85 121.328 85 120.5C85 119.672 85.6716 119 86.5 119C87.3284 119 88 119.672 88 120.5Z" fill="#835BFF"/>
<path d="M3 103.5C3 104.328 2.32843 105 1.5 105C0.671573 105 0 104.328 0 103.5C0 102.672 0.671573 102 1.5 102C2.32843 102 3 102.672 3 103.5Z" fill="#835BFF"/>
<path d="M20 103.5C20 104.328 19.3284 105 18.5 105C17.6716 105 17 104.328 17 103.5C17 102.672 17.6716 102 18.5 102C19.3284 102 20 102.672 20 103.5Z" fill="#835BFF"/>
<path d="M37 103.5C37 104.328 36.3284 105 35.5 105C34.6716 105 34 104.328 34 103.5C34 102.672 34.6716 102 35.5 102C36.3284 102 37 102.672 37 103.5Z" fill="#835BFF"/>
<path d="M54 103.5C54 104.328 53.3284 105 52.5 105C51.6716 105 51 104.328 51 103.5C51 102.672 51.6716 102 52.5 102C53.3284 102 54 102.672 54 103.5Z" fill="#835BFF"/>
<path d="M71 103.5C71 104.328 70.3284 105 69.5 105C68.6716 105 68 104.328 68 103.5C68 102.672 68.6716 102 69.5 102C70.3284 102 71 102.672 71 103.5Z" fill="#835BFF"/>
<path d="M88 103.5C88 104.328 87.3284 105 86.5 105C85.6716 105 85 104.328 85 103.5C85 102.672 85.6716 102 86.5 102C87.3284 102 88 102.672 88 103.5Z" fill="#835BFF"/>
<path d="M3 86.5C3 87.3284 2.32843 88 1.5 88C0.671573 88 0 87.3284 0 86.5C0 85.6716 0.671573 85 1.5 85C2.32843 85 3 85.6716 3 86.5Z" fill="#835BFF"/>
<path d="M20 86.5C20 87.3284 19.3284 88 18.5 88C17.6716 88 17 87.3284 17 86.5C17 85.6716 17.6716 85 18.5 85C19.3284 85 20 85.6716 20 86.5Z" fill="#835BFF"/>
<path d="M37 86.5C37 87.3284 36.3284 88 35.5 88C34.6716 88 34 87.3284 34 86.5C34 85.6716 34.6716 85 35.5 85C36.3284 85 37 85.6716 37 86.5Z" fill="#835BFF"/>
<path d="M54 86.5C54 87.3284 53.3284 88 52.5 88C51.6716 88 51 87.3284 51 86.5C51 85.6716 51.6716 85 52.5 85C53.3284 85 54 85.6716 54 86.5Z" fill="#835BFF"/>
<path d="M71 86.5C71 87.3284 70.3284 88 69.5 88C68.6716 88 68 87.3284 68 86.5C68 85.6716 68.6716 85 69.5 85C70.3284 85 71 85.6716 71 86.5Z" fill="#835BFF"/>
<path d="M88 86.5C88 87.3284 87.3284 88 86.5 88C85.6716 88 85 87.3284 85 86.5C85 85.6716 85.6716 85 86.5 85C87.3284 85 88 85.6716 88 86.5Z" fill="#835BFF"/>
<path d="M3 69.5C3 70.3284 2.32843 71 1.5 71C0.671573 71 0 70.3284 0 69.5C0 68.6716 0.671573 68 1.5 68C2.32843 68 3 68.6716 3 69.5Z" fill="#835BFF"/>
<path d="M20 69.5C20 70.3284 19.3284 71 18.5 71C17.6716 71 17 70.3284 17 69.5C17 68.6716 17.6716 68 18.5 68C19.3284 68 20 68.6716 20 69.5Z" fill="#835BFF"/>
<path d="M37 69.5C37 70.3284 36.3284 71 35.5 71C34.6716 71 34 70.3284 34 69.5C34 68.6716 34.6716 68 35.5 68C36.3284 68 37 68.6716 37 69.5Z" fill="#835BFF"/>
<path d="M54 69.5C54 70.3284 53.3284 71 52.5 71C51.6716 71 51 70.3284 51 69.5C51 68.6716 51.6716 68 52.5 68C53.3284 68 54 68.6716 54 69.5Z" fill="#835BFF"/>
<path d="M71 69.5C71 70.3284 70.3284 71 69.5 71C68.6716 71 68 70.3284 68 69.5C68 68.6716 68.6716 68 69.5 68C70.3284 68 71 68.6716 71 69.5Z" fill="#835BFF"/>
<path d="M88 69.5C88 70.3284 87.3284 71 86.5 71C85.6716 71 85 70.3284 85 69.5C85 68.6716 85.6716 68 86.5 68C87.3284 68 88 68.6716 88 69.5Z" fill="#835BFF"/>
<path d="M3 52.5C3 53.3284 2.32843 54 1.5 54C0.671573 54 0 53.3284 0 52.5C0 51.6716 0.671573 51 1.5 51C2.32843 51 3 51.6716 3 52.5Z" fill="#835BFF"/>
<path d="M20 52.5C20 53.3284 19.3284 54 18.5 54C17.6716 54 17 53.3284 17 52.5C17 51.6716 17.6716 51 18.5 51C19.3284 51 20 51.6716 20 52.5Z" fill="#835BFF"/>
<path d="M37 52.5C37 53.3284 36.3284 54 35.5 54C34.6716 54 34 53.3284 34 52.5C34 51.6716 34.6716 51 35.5 51C36.3284 51 37 51.6716 37 52.5Z" fill="#835BFF"/>
<path d="M54 52.5C54 53.3284 53.3284 54 52.5 54C51.6716 54 51 53.3284 51 52.5C51 51.6716 51.6716 51 52.5 51C53.3284 51 54 51.6716 54 52.5Z" fill="#835BFF"/>
<path d="M71 52.5C71 53.3284 70.3284 54 69.5 54C68.6716 54 68 53.3284 68 52.5C68 51.6716 68.6716 51 69.5 51C70.3284 51 71 51.6716 71 52.5Z" fill="#835BFF"/>
<path d="M88 52.5C88 53.3284 87.3284 54 86.5 54C85.6716 54 85 53.3284 85 52.5C85 51.6716 85.6716 51 86.5 51C87.3284 51 88 51.6716 88 52.5Z" fill="#835BFF"/>
<path d="M3 35.5C3 36.3284 2.32843 37 1.5 37C0.671573 37 0 36.3284 0 35.5C0 34.6716 0.671573 34 1.5 34C2.32843 34 3 34.6716 3 35.5Z" fill="#835BFF"/>
<path d="M20 35.5C20 36.3284 19.3284 37 18.5 37C17.6716 37 17 36.3284 17 35.5C17 34.6716 17.6716 34 18.5 34C19.3284 34 20 34.6716 20 35.5Z" fill="#835BFF"/>
<path d="M37 35.5C37 36.3284 36.3284 37 35.5 37C34.6716 37 34 36.3284 34 35.5C34 34.6716 34.6716 34 35.5 34C36.3284 34 37 34.6716 37 35.5Z" fill="#835BFF"/>
<path d="M54 35.5C54 36.3284 53.3284 37 52.5 37C51.6716 37 51 36.3284 51 35.5C51 34.6716 51.6716 34 52.5 34C53.3284 34 54 34.6716 54 35.5Z" fill="#835BFF"/>
<path d="M71 35.5C71 36.3284 70.3284 37 69.5 37C68.6716 37 68 36.3284 68 35.5C68 34.6716 68.6716 34 69.5 34C70.3284 34 71 34.6716 71 35.5Z" fill="#835BFF"/>
<path d="M88 35.5C88 36.3284 87.3284 37 86.5 37C85.6716 37 85 36.3284 85 35.5C85 34.6716 85.6716 34 86.5 34C87.3284 34 88 34.6716 88 35.5Z" fill="#835BFF"/>
<path d="M3 18.5C3 19.3284 2.32843 20 1.5 20C0.671573 20 0 19.3284 0 18.5C0 17.6716 0.671573 17 1.5 17C2.32843 17 3 17.6716 3 18.5Z" fill="#835BFF"/>
<path d="M20 18.5C20 19.3284 19.3284 20 18.5 20C17.6716 20 17 19.3284 17 18.5C17 17.6716 17.6716 17 18.5 17C19.3284 17 20 17.6716 20 18.5Z" fill="#835BFF"/>
<path d="M37 18.5C37 19.3284 36.3284 20 35.5 20C34.6716 20 34 19.3284 34 18.5C34 17.6716 34.6716 17 35.5 17C36.3284 17 37 17.6716 37 18.5Z" fill="#835BFF"/>
<path d="M54 18.5C54 19.3284 53.3284 20 52.5 20C51.6716 20 51 19.3284 51 18.5C51 17.6716 51.6716 17 52.5 17C53.3284 17 54 17.6716 54 18.5Z" fill="#835BFF"/>
<path d="M71 18.5C71 19.3284 70.3284 20 69.5 20C68.6716 20 68 19.3284 68 18.5C68 17.6716 68.6716 17 69.5 17C70.3284 17 71 17.6716 71 18.5Z" fill="#835BFF"/>
<path d="M88 18.5C88 19.3284 87.3284 20 86.5 20C85.6716 20 85 19.3284 85 18.5C85 17.6716 85.6716 17 86.5 17C87.3284 17 88 17.6716 88 18.5Z" fill="#835BFF"/>
<path d="M3 1.5C3 2.32843 2.32843 3 1.5 3C0.671573 3 0 2.32843 0 1.5C0 0.671573 0.671573 0 1.5 0C2.32843 0 3 0.671573 3 1.5Z" fill="#835BFF"/>
<path d="M20 1.5C20 2.32843 19.3284 3 18.5 3C17.6716 3 17 2.32843 17 1.5C17 0.671573 17.6716 0 18.5 0C19.3284 0 20 0.671573 20 1.5Z" fill="#835BFF"/>
<path d="M37 1.5C37 2.32843 36.3284 3 35.5 3C34.6716 3 34 2.32843 34 1.5C34 0.671573 34.6716 0 35.5 0C36.3284 0 37 0.671573 37 1.5Z" fill="#835BFF"/>
<path d="M54 1.5C54 2.32843 53.3284 3 52.5 3C51.6716 3 51 2.32843 51 1.5C51 0.671573 51.6716 0 52.5 0C53.3284 0 54 0.671573 54 1.5Z" fill="#835BFF"/>
<path d="M71 1.5C71 2.32843 70.3284 3 69.5 3C68.6716 3 68 2.32843 68 1.5C68 0.671573 68.6716 0 69.5 0C70.3284 0 71 0.671573 71 1.5Z" fill="#835BFF"/>
<path d="M88 1.5C88 2.32843 87.3284 3 86.5 3C85.6716 3 85 2.32843 85 1.5C85 0.671573 85.6716 0 86.5 0C87.3284 0 88 0.671573 88 1.5Z" fill="#835BFF"/>
</g>
</svg>
