<svg width="547" height="20" viewBox="0 0 547 20" fill="none" xmlns="http://www.w3.org/2000/svg">
<g opacity="0.4">
<path d="M3 18.5C3 19.3284 2.32843 20 1.5 20C0.671573 20 0 19.3284 0 18.5C0 17.6716 0.671573 17 1.5 17C2.32843 17 3 17.6716 3 18.5Z" fill="#835BFF"/>
<path d="M20 18.5C20 19.3284 19.3284 20 18.5 20C17.6716 20 17 19.3284 17 18.5C17 17.6716 17.6716 17 18.5 17C19.3284 17 20 17.6716 20 18.5Z" fill="#835BFF"/>
<path d="M37 18.5C37 19.3284 36.3284 20 35.5 20C34.6716 20 34 19.3284 34 18.5C34 17.6716 34.6716 17 35.5 17C36.3284 17 37 17.6716 37 18.5Z" fill="#835BFF"/>
<path d="M54 18.5C54 19.3284 53.3284 20 52.5 20C51.6716 20 51 19.3284 51 18.5C51 17.6716 51.6716 17 52.5 17C53.3284 17 54 17.6716 54 18.5Z" fill="#835BFF"/>
<path d="M71 18.5C71 19.3284 70.3284 20 69.5 20C68.6716 20 68 19.3284 68 18.5C68 17.6716 68.6716 17 69.5 17C70.3284 17 71 17.6716 71 18.5Z" fill="#835BFF"/>
<path d="M88 18.5C88 19.3284 87.3284 20 86.5 20C85.6716 20 85 19.3284 85 18.5C85 17.6716 85.6716 17 86.5 17C87.3284 17 88 17.6716 88 18.5Z" fill="#835BFF"/>
<path d="M3 1.5C3 2.32843 2.32843 3 1.5 3C0.671573 3 0 2.32843 0 1.5C0 0.671573 0.671573 0 1.5 0C2.32843 0 3 0.671573 3 1.5Z" fill="#835BFF"/>
<path d="M20 1.5C20 2.32843 19.3284 3 18.5 3C17.6716 3 17 2.32843 17 1.5C17 0.671573 17.6716 0 18.5 0C19.3284 0 20 0.671573 20 1.5Z" fill="#835BFF"/>
<path d="M37 1.5C37 2.32843 36.3284 3 35.5 3C34.6716 3 34 2.32843 34 1.5C34 0.671573 34.6716 0 35.5 0C36.3284 0 37 0.671573 37 1.5Z" fill="#835BFF"/>
<path d="M54 1.5C54 2.32843 53.3284 3 52.5 3C51.6716 3 51 2.32843 51 1.5C51 0.671573 51.6716 0 52.5 0C53.3284 0 54 0.671573 54 1.5Z" fill="#835BFF"/>
<path d="M71 1.5C71 2.32843 70.3284 3 69.5 3C68.6716 3 68 2.32843 68 1.5C68 0.671573 68.6716 0 69.5 0C70.3284 0 71 0.671573 71 1.5Z" fill="#835BFF"/>
<path d="M88 1.5C88 2.32843 87.3284 3 86.5 3C85.6716 3 85 2.32843 85 1.5C85 0.671573 85.6716 0 86.5 0C87.3284 0 88 0.671573 88 1.5Z" fill="#835BFF"/>
<path d="M105 18.5C105 19.3284 104.328 20 103.5 20C102.672 20 102 19.3284 102 18.5C102 17.6716 102.672 17 103.5 17C104.328 17 105 17.6716 105 18.5Z" fill="#835BFF"/>
<path d="M122 18.5C122 19.3284 121.328 20 120.5 20C119.672 20 119 19.3284 119 18.5C119 17.6716 119.672 17 120.5 17C121.328 17 122 17.6716 122 18.5Z" fill="#835BFF"/>
<path d="M139 18.5C139 19.3284 138.328 20 137.5 20C136.672 20 136 19.3284 136 18.5C136 17.6716 136.672 17 137.5 17C138.328 17 139 17.6716 139 18.5Z" fill="#835BFF"/>
<path d="M156 18.5C156 19.3284 155.328 20 154.5 20C153.672 20 153 19.3284 153 18.5C153 17.6716 153.672 17 154.5 17C155.328 17 156 17.6716 156 18.5Z" fill="#835BFF"/>
<path d="M173 18.5C173 19.3284 172.328 20 171.5 20C170.672 20 170 19.3284 170 18.5C170 17.6716 170.672 17 171.5 17C172.328 17 173 17.6716 173 18.5Z" fill="#835BFF"/>
<path d="M190 18.5C190 19.3284 189.328 20 188.5 20C187.672 20 187 19.3284 187 18.5C187 17.6716 187.672 17 188.5 17C189.328 17 190 17.6716 190 18.5Z" fill="#835BFF"/>
<path d="M105 1.5C105 2.32843 104.328 3 103.5 3C102.672 3 102 2.32843 102 1.5C102 0.671573 102.672 0 103.5 0C104.328 0 105 0.671573 105 1.5Z" fill="#835BFF"/>
<path d="M122 1.5C122 2.32843 121.328 3 120.5 3C119.672 3 119 2.32843 119 1.5C119 0.671573 119.672 0 120.5 0C121.328 0 122 0.671573 122 1.5Z" fill="#835BFF"/>
<path d="M139 1.5C139 2.32843 138.328 3 137.5 3C136.672 3 136 2.32843 136 1.5C136 0.671573 136.672 0 137.5 0C138.328 0 139 0.671573 139 1.5Z" fill="#835BFF"/>
<path d="M156 1.5C156 2.32843 155.328 3 154.5 3C153.672 3 153 2.32843 153 1.5C153 0.671573 153.672 0 154.5 0C155.328 0 156 0.671573 156 1.5Z" fill="#835BFF"/>
<path d="M173 1.5C173 2.32843 172.328 3 171.5 3C170.672 3 170 2.32843 170 1.5C170 0.671573 170.672 0 171.5 0C172.328 0 173 0.671573 173 1.5Z" fill="#835BFF"/>
<path d="M190 1.5C190 2.32843 189.328 3 188.5 3C187.672 3 187 2.32843 187 1.5C187 0.671573 187.672 0 188.5 0C189.328 0 190 0.671573 190 1.5Z" fill="#835BFF"/>
<path d="M207 18.5C207 19.3284 206.328 20 205.5 20C204.672 20 204 19.3284 204 18.5C204 17.6716 204.672 17 205.5 17C206.328 17 207 17.6716 207 18.5Z" fill="#835BFF"/>
<path d="M224 18.5C224 19.3284 223.328 20 222.5 20C221.672 20 221 19.3284 221 18.5C221 17.6716 221.672 17 222.5 17C223.328 17 224 17.6716 224 18.5Z" fill="#835BFF"/>
<path d="M241 18.5C241 19.3284 240.328 20 239.5 20C238.672 20 238 19.3284 238 18.5C238 17.6716 238.672 17 239.5 17C240.328 17 241 17.6716 241 18.5Z" fill="#835BFF"/>
<path d="M258 18.5C258 19.3284 257.328 20 256.5 20C255.672 20 255 19.3284 255 18.5C255 17.6716 255.672 17 256.5 17C257.328 17 258 17.6716 258 18.5Z" fill="#835BFF"/>
<path d="M275 18.5C275 19.3284 274.328 20 273.5 20C272.672 20 272 19.3284 272 18.5C272 17.6716 272.672 17 273.5 17C274.328 17 275 17.6716 275 18.5Z" fill="#835BFF"/>
<path d="M292 18.5C292 19.3284 291.328 20 290.5 20C289.672 20 289 19.3284 289 18.5C289 17.6716 289.672 17 290.5 17C291.328 17 292 17.6716 292 18.5Z" fill="#835BFF"/>
<path d="M207 1.5C207 2.32843 206.328 3 205.5 3C204.672 3 204 2.32843 204 1.5C204 0.671573 204.672 0 205.5 0C206.328 0 207 0.671573 207 1.5Z" fill="#835BFF"/>
<path d="M224 1.5C224 2.32843 223.328 3 222.5 3C221.672 3 221 2.32843 221 1.5C221 0.671573 221.672 0 222.5 0C223.328 0 224 0.671573 224 1.5Z" fill="#835BFF"/>
<path d="M241 1.5C241 2.32843 240.328 3 239.5 3C238.672 3 238 2.32843 238 1.5C238 0.671573 238.672 0 239.5 0C240.328 0 241 0.671573 241 1.5Z" fill="#835BFF"/>
<path d="M258 1.5C258 2.32843 257.328 3 256.5 3C255.672 3 255 2.32843 255 1.5C255 0.671573 255.672 0 256.5 0C257.328 0 258 0.671573 258 1.5Z" fill="#835BFF"/>
<path d="M275 1.5C275 2.32843 274.328 3 273.5 3C272.672 3 272 2.32843 272 1.5C272 0.671573 272.672 0 273.5 0C274.328 0 275 0.671573 275 1.5Z" fill="#835BFF"/>
<path d="M292 1.5C292 2.32843 291.328 3 290.5 3C289.672 3 289 2.32843 289 1.5C289 0.671573 289.672 0 290.5 0C291.328 0 292 0.671573 292 1.5Z" fill="#835BFF"/>
<path d="M309 18.5C309 19.3284 308.328 20 307.5 20C306.672 20 306 19.3284 306 18.5C306 17.6716 306.672 17 307.5 17C308.328 17 309 17.6716 309 18.5Z" fill="#835BFF"/>
<path d="M326 18.5C326 19.3284 325.328 20 324.5 20C323.672 20 323 19.3284 323 18.5C323 17.6716 323.672 17 324.5 17C325.328 17 326 17.6716 326 18.5Z" fill="#835BFF"/>
<path d="M343 18.5C343 19.3284 342.328 20 341.5 20C340.672 20 340 19.3284 340 18.5C340 17.6716 340.672 17 341.5 17C342.328 17 343 17.6716 343 18.5Z" fill="#835BFF"/>
<path d="M360 18.5C360 19.3284 359.328 20 358.5 20C357.672 20 357 19.3284 357 18.5C357 17.6716 357.672 17 358.5 17C359.328 17 360 17.6716 360 18.5Z" fill="#835BFF"/>
<path d="M377 18.5C377 19.3284 376.328 20 375.5 20C374.672 20 374 19.3284 374 18.5C374 17.6716 374.672 17 375.5 17C376.328 17 377 17.6716 377 18.5Z" fill="#835BFF"/>
<path d="M394 18.5C394 19.3284 393.328 20 392.5 20C391.672 20 391 19.3284 391 18.5C391 17.6716 391.672 17 392.5 17C393.328 17 394 17.6716 394 18.5Z" fill="#835BFF"/>
<path d="M309 1.5C309 2.32843 308.328 3 307.5 3C306.672 3 306 2.32843 306 1.5C306 0.671573 306.672 0 307.5 0C308.328 0 309 0.671573 309 1.5Z" fill="#835BFF"/>
<path d="M326 1.5C326 2.32843 325.328 3 324.5 3C323.672 3 323 2.32843 323 1.5C323 0.671573 323.672 0 324.5 0C325.328 0 326 0.671573 326 1.5Z" fill="#835BFF"/>
<path d="M343 1.5C343 2.32843 342.328 3 341.5 3C340.672 3 340 2.32843 340 1.5C340 0.671573 340.672 0 341.5 0C342.328 0 343 0.671573 343 1.5Z" fill="#835BFF"/>
<path d="M360 1.5C360 2.32843 359.328 3 358.5 3C357.672 3 357 2.32843 357 1.5C357 0.671573 357.672 0 358.5 0C359.328 0 360 0.671573 360 1.5Z" fill="#835BFF"/>
<path d="M377 1.5C377 2.32843 376.328 3 375.5 3C374.672 3 374 2.32843 374 1.5C374 0.671573 374.672 0 375.5 0C376.328 0 377 0.671573 377 1.5Z" fill="#835BFF"/>
<path d="M394 1.5C394 2.32843 393.328 3 392.5 3C391.672 3 391 2.32843 391 1.5C391 0.671573 391.672 0 392.5 0C393.328 0 394 0.671573 394 1.5Z" fill="#835BFF"/>
<path d="M411 18.5C411 19.3284 410.328 20 409.5 20C408.672 20 408 19.3284 408 18.5C408 17.6716 408.672 17 409.5 17C410.328 17 411 17.6716 411 18.5Z" fill="#835BFF"/>
<path d="M428 18.5C428 19.3284 427.328 20 426.5 20C425.672 20 425 19.3284 425 18.5C425 17.6716 425.672 17 426.5 17C427.328 17 428 17.6716 428 18.5Z" fill="#835BFF"/>
<path d="M445 18.5C445 19.3284 444.328 20 443.5 20C442.672 20 442 19.3284 442 18.5C442 17.6716 442.672 17 443.5 17C444.328 17 445 17.6716 445 18.5Z" fill="#835BFF"/>
<path d="M462 18.5C462 19.3284 461.328 20 460.5 20C459.672 20 459 19.3284 459 18.5C459 17.6716 459.672 17 460.5 17C461.328 17 462 17.6716 462 18.5Z" fill="#835BFF"/>
<path d="M479 18.5C479 19.3284 478.328 20 477.5 20C476.672 20 476 19.3284 476 18.5C476 17.6716 476.672 17 477.5 17C478.328 17 479 17.6716 479 18.5Z" fill="#835BFF"/>
<path d="M496 18.5C496 19.3284 495.328 20 494.5 20C493.672 20 493 19.3284 493 18.5C493 17.6716 493.672 17 494.5 17C495.328 17 496 17.6716 496 18.5Z" fill="#835BFF"/>
<path d="M411 1.5C411 2.32843 410.328 3 409.5 3C408.672 3 408 2.32843 408 1.5C408 0.671573 408.672 0 409.5 0C410.328 0 411 0.671573 411 1.5Z" fill="#835BFF"/>
<path d="M428 1.5C428 2.32843 427.328 3 426.5 3C425.672 3 425 2.32843 425 1.5C425 0.671573 425.672 0 426.5 0C427.328 0 428 0.671573 428 1.5Z" fill="#835BFF"/>
<path d="M445 1.5C445 2.32843 444.328 3 443.5 3C442.672 3 442 2.32843 442 1.5C442 0.671573 442.672 0 443.5 0C444.328 0 445 0.671573 445 1.5Z" fill="#835BFF"/>
<path d="M462 1.5C462 2.32843 461.328 3 460.5 3C459.672 3 459 2.32843 459 1.5C459 0.671573 459.672 0 460.5 0C461.328 0 462 0.671573 462 1.5Z" fill="#835BFF"/>
<path d="M479 1.5C479 2.32843 478.328 3 477.5 3C476.672 3 476 2.32843 476 1.5C476 0.671573 476.672 0 477.5 0C478.328 0 479 0.671573 479 1.5Z" fill="#835BFF"/>
<path d="M496 1.5C496 2.32843 495.328 3 494.5 3C493.672 3 493 2.32843 493 1.5C493 0.671573 493.672 0 494.5 0C495.328 0 496 0.671573 496 1.5Z" fill="#835BFF"/>
<path d="M513 18.5C513 19.3284 512.328 20 511.5 20C510.672 20 510 19.3284 510 18.5C510 17.6716 510.672 17 511.5 17C512.328 17 513 17.6716 513 18.5Z" fill="#835BFF"/>
<path d="M530 18.5C530 19.3284 529.328 20 528.5 20C527.672 20 527 19.3284 527 18.5C527 17.6716 527.672 17 528.5 17C529.328 17 530 17.6716 530 18.5Z" fill="#835BFF"/>
<path d="M547 18.5C547 19.3284 546.328 20 545.5 20C544.672 20 544 19.3284 544 18.5C544 17.6716 544.672 17 545.5 17C546.328 17 547 17.6716 547 18.5Z" fill="#835BFF"/>
<path d="M513 1.5C513 2.32843 512.328 3 511.5 3C510.672 3 510 2.32843 510 1.5C510 0.671573 510.672 0 511.5 0C512.328 0 513 0.671573 513 1.5Z" fill="#835BFF"/>
<path d="M530 1.5C530 2.32843 529.328 3 528.5 3C527.672 3 527 2.32843 527 1.5C527 0.671573 527.672 0 528.5 0C529.328 0 530 0.671573 530 1.5Z" fill="#835BFF"/>
<path d="M547 1.5C547 2.32843 546.328 3 545.5 3C544.672 3 544 2.32843 544 1.5C544 0.671573 544.672 0 545.5 0C546.328 0 547 0.671573 547 1.5Z" fill="#835BFF"/>
</g>
</svg>
