<svg width="530" height="37" viewBox="0 0 530 37" fill="none" xmlns="http://www.w3.org/2000/svg">
<g opacity="0.4">
<path d="M527 1.5C527 0.671573 527.672 -2.03558e-07 528.5 -1.31134e-07C529.328 -5.87108e-08 530 0.671574 530 1.5C530 2.32843 529.328 3 528.5 3C527.672 3 527 2.32843 527 1.5Z" fill="#835BFF"/>
<path d="M510 1.5C510 0.671572 510.672 -1.68974e-06 511.5 -1.61732e-06C512.328 -1.5449e-06 513 0.671572 513 1.5C513 2.32842 512.328 3 511.5 3C510.672 3 510 2.32842 510 1.5Z" fill="#835BFF"/>
<path d="M493 1.5C493 0.67157 493.672 -3.17593e-06 494.5 -3.10351e-06C495.328 -3.03109e-06 496 0.671571 496 1.5C496 2.32842 495.328 3 494.5 3C493.672 3 493 2.32842 493 1.5Z" fill="#835BFF"/>
<path d="M476 1.5C476 0.671569 476.672 -4.66212e-06 477.5 -4.5897e-06C478.328 -4.51727e-06 479 0.671569 479 1.5C479 2.32842 478.328 3 477.5 3C476.672 3 476 2.32842 476 1.5Z" fill="#835BFF"/>
<path d="M459 1.49999C459 0.671567 459.672 -6.14831e-06 460.5 -6.07588e-06C461.328 -6.00346e-06 462 0.671568 462 1.49999C462 2.32842 461.328 2.99999 460.5 2.99999C459.672 2.99999 459 2.32842 459 1.49999Z" fill="#835BFF"/>
<path d="M442 1.49999C442 0.671566 442.672 -7.63449e-06 443.5 -7.56207e-06C444.328 -7.48965e-06 445 0.671566 445 1.49999C445 2.32842 444.328 2.99999 443.5 2.99999C442.672 2.99999 442 2.32842 442 1.49999Z" fill="#835BFF"/>
<path d="M527 18.5C527 17.6716 527.672 17 528.5 17C529.328 17 530 17.6716 530 18.5C530 19.3284 529.328 20 528.5 20C527.672 20 527 19.3284 527 18.5Z" fill="#835BFF"/>
<path d="M510 18.5C510 17.6716 510.672 17 511.5 17C512.328 17 513 17.6716 513 18.5C513 19.3284 512.328 20 511.5 20C510.672 20 510 19.3284 510 18.5Z" fill="#835BFF"/>
<path d="M493 18.5C493 17.6716 493.672 17 494.5 17C495.328 17 496 17.6716 496 18.5C496 19.3284 495.328 20 494.5 20C493.672 20 493 19.3284 493 18.5Z" fill="#835BFF"/>
<path d="M476 18.5C476 17.6716 476.672 17 477.5 17C478.328 17 479 17.6716 479 18.5C479 19.3284 478.328 20 477.5 20C476.672 20 476 19.3284 476 18.5Z" fill="#835BFF"/>
<path d="M459 18.5C459 17.6716 459.672 17 460.5 17C461.328 17 462 17.6716 462 18.5C462 19.3284 461.328 20 460.5 20C459.672 20 459 19.3284 459 18.5Z" fill="#835BFF"/>
<path d="M442 18.5C442 17.6716 442.672 17 443.5 17C444.328 17 445 17.6716 445 18.5C445 19.3284 444.328 20 443.5 20C442.672 20 442 19.3284 442 18.5Z" fill="#835BFF"/>
<path d="M527 35.5C527 34.6716 527.672 34 528.5 34C529.328 34 530 34.6716 530 35.5C530 36.3284 529.328 37 528.5 37C527.672 37 527 36.3284 527 35.5Z" fill="#835BFF"/>
<path d="M510 35.5C510 34.6716 510.672 34 511.5 34C512.328 34 513 34.6716 513 35.5C513 36.3284 512.328 37 511.5 37C510.672 37 510 36.3284 510 35.5Z" fill="#835BFF"/>
<path d="M493 35.5C493 34.6716 493.672 34 494.5 34C495.328 34 496 34.6716 496 35.5C496 36.3284 495.328 37 494.5 37C493.672 37 493 36.3284 493 35.5Z" fill="#835BFF"/>
<path d="M476 35.5C476 34.6716 476.672 34 477.5 34C478.328 34 479 34.6716 479 35.5C479 36.3284 478.328 37 477.5 37C476.672 37 476 36.3284 476 35.5Z" fill="#835BFF"/>
<path d="M459 35.5C459 34.6716 459.672 34 460.5 34C461.328 34 462 34.6716 462 35.5C462 36.3284 461.328 37 460.5 37C459.672 37 459 36.3284 459 35.5Z" fill="#835BFF"/>
<path d="M442 35.5C442 34.6716 442.672 34 443.5 34C444.328 34 445 34.6716 445 35.5C445 36.3284 444.328 37 443.5 37C442.672 37 442 36.3284 442 35.5Z" fill="#835BFF"/>
<path d="M425 1.49999C425 0.671564 425.672 -9.12068e-06 426.5 -9.04826e-06C427.328 -8.97583e-06 428 0.671565 428 1.49999C428 2.32842 427.328 2.99999 426.5 2.99999C425.672 2.99999 425 2.32842 425 1.49999Z" fill="#835BFF"/>
<path d="M408 1.49999C408 0.671563 408.672 -1.06069e-05 409.5 -1.05344e-05C410.328 -1.0462e-05 411 0.671563 411 1.49999C411 2.32842 410.328 2.99999 409.5 2.99999C408.672 2.99999 408 2.32842 408 1.49999Z" fill="#835BFF"/>
<path d="M391 1.49999C391 0.671561 391.672 -1.20931e-05 392.5 -1.20206e-05C393.328 -1.19482e-05 394 0.671562 394 1.49999C394 2.32841 393.328 2.99999 392.5 2.99999C391.672 2.99999 391 2.32841 391 1.49999Z" fill="#835BFF"/>
<path d="M374 1.49999C374 0.67156 374.672 -1.35792e-05 375.5 -1.35068e-05C376.328 -1.34344e-05 377 0.67156 377 1.49999C377 2.32841 376.328 2.99999 375.5 2.99999C374.672 2.99999 374 2.32841 374 1.49999Z" fill="#835BFF"/>
<path d="M357 1.49998C357 0.671559 357.672 -1.50654e-05 358.5 -1.4993e-05C359.328 -1.49206e-05 360 0.671559 360 1.49999C360 2.32841 359.328 2.99999 358.5 2.99999C357.672 2.99998 357 2.32841 357 1.49998Z" fill="#835BFF"/>
<path d="M340 1.49998C340 0.671557 340.672 -1.65516e-05 341.5 -1.64792e-05C342.328 -1.64068e-05 343 0.671557 343 1.49998C343 2.32841 342.328 2.99998 341.5 2.99998C340.672 2.99998 340 2.32841 340 1.49998Z" fill="#835BFF"/>
<path d="M425 18.5C425 17.6716 425.672 17 426.5 17C427.328 17 428 17.6716 428 18.5C428 19.3284 427.328 20 426.5 20C425.672 20 425 19.3284 425 18.5Z" fill="#835BFF"/>
<path d="M408 18.5C408 17.6716 408.672 17 409.5 17C410.328 17 411 17.6716 411 18.5C411 19.3284 410.328 20 409.5 20C408.672 20 408 19.3284 408 18.5Z" fill="#835BFF"/>
<path d="M391 18.5C391 17.6716 391.672 17 392.5 17C393.328 17 394 17.6716 394 18.5C394 19.3284 393.328 20 392.5 20C391.672 20 391 19.3284 391 18.5Z" fill="#835BFF"/>
<path d="M374 18.5C374 17.6716 374.672 17 375.5 17C376.328 17 377 17.6716 377 18.5C377 19.3284 376.328 20 375.5 20C374.672 20 374 19.3284 374 18.5Z" fill="#835BFF"/>
<path d="M357 18.5C357 17.6716 357.672 17 358.5 17C359.328 17 360 17.6716 360 18.5C360 19.3284 359.328 20 358.5 20C357.672 20 357 19.3284 357 18.5Z" fill="#835BFF"/>
<path d="M340 18.5C340 17.6716 340.672 17 341.5 17C342.328 17 343 17.6716 343 18.5C343 19.3284 342.328 20 341.5 20C340.672 20 340 19.3284 340 18.5Z" fill="#835BFF"/>
<path d="M425 35.5C425 34.6716 425.672 34 426.5 34C427.328 34 428 34.6716 428 35.5C428 36.3284 427.328 37 426.5 37C425.672 37 425 36.3284 425 35.5Z" fill="#835BFF"/>
<path d="M408 35.5C408 34.6716 408.672 34 409.5 34C410.328 34 411 34.6716 411 35.5C411 36.3284 410.328 37 409.5 37C408.672 37 408 36.3284 408 35.5Z" fill="#835BFF"/>
<path d="M391 35.5C391 34.6716 391.672 34 392.5 34C393.328 34 394 34.6716 394 35.5C394 36.3284 393.328 37 392.5 37C391.672 37 391 36.3284 391 35.5Z" fill="#835BFF"/>
<path d="M374 35.5C374 34.6716 374.672 34 375.5 34C376.328 34 377 34.6716 377 35.5C377 36.3284 376.328 37 375.5 37C374.672 37 374 36.3284 374 35.5Z" fill="#835BFF"/>
<path d="M357 35.5C357 34.6716 357.672 34 358.5 34C359.328 34 360 34.6716 360 35.5C360 36.3284 359.328 37 358.5 37C357.672 37 357 36.3284 357 35.5Z" fill="#835BFF"/>
<path d="M340 35.5C340 34.6716 340.672 34 341.5 34C342.328 34 343 34.6716 343 35.5C343 36.3284 342.328 37 341.5 37C340.672 37 340 36.3284 340 35.5Z" fill="#835BFF"/>
<path d="M323 1.49998C323 0.671556 323.672 -1.80378e-05 324.5 -1.79654e-05C325.328 -1.7893e-05 326 0.671556 326 1.49998C326 2.32841 325.328 2.99998 324.5 2.99998C323.672 2.99998 323 2.32841 323 1.49998Z" fill="#835BFF"/>
<path d="M306 1.49998C306 0.671554 306.672 -1.9524e-05 307.5 -1.94516e-05C308.328 -1.93791e-05 309 0.671554 309 1.49998C309 2.32841 308.328 2.99998 307.5 2.99998C306.672 2.99998 306 2.32841 306 1.49998Z" fill="#835BFF"/>
<path d="M289 1.49998C289 0.671553 289.672 -2.10102e-05 290.5 -2.09378e-05C291.328 -2.08653e-05 292 0.671553 292 1.49998C292 2.32841 291.328 2.99998 290.5 2.99998C289.672 2.99998 289 2.32841 289 1.49998Z" fill="#835BFF"/>
<path d="M272 1.49998C272 0.671551 272.672 -2.24964e-05 273.5 -2.24239e-05C274.328 -2.23515e-05 275 0.671551 275 1.49998C275 2.3284 274.328 2.99998 273.5 2.99998C272.672 2.99998 272 2.3284 272 1.49998Z" fill="#835BFF"/>
<path d="M255 1.49998C255 0.67155 255.672 -2.39826e-05 256.5 -2.39101e-05C257.328 -2.38377e-05 258 0.67155 258 1.49998C258 2.3284 257.328 2.99998 256.5 2.99998C255.672 2.99998 255 2.3284 255 1.49998Z" fill="#835BFF"/>
<path d="M238 1.49997C238 0.671548 238.672 -2.54687e-05 239.5 -2.53963e-05C240.328 -2.53239e-05 241 0.671548 241 1.49997C241 2.3284 240.328 2.99997 239.5 2.99997C238.672 2.99997 238 2.3284 238 1.49997Z" fill="#835BFF"/>
<path d="M323 18.5C323 17.6716 323.672 17 324.5 17C325.328 17 326 17.6716 326 18.5C326 19.3284 325.328 20 324.5 20C323.672 20 323 19.3284 323 18.5Z" fill="#835BFF"/>
<path d="M306 18.5C306 17.6716 306.672 17 307.5 17C308.328 17 309 17.6716 309 18.5C309 19.3284 308.328 20 307.5 20C306.672 20 306 19.3284 306 18.5Z" fill="#835BFF"/>
<path d="M289 18.5C289 17.6716 289.672 17 290.5 17C291.328 17 292 17.6716 292 18.5C292 19.3284 291.328 20 290.5 20C289.672 20 289 19.3284 289 18.5Z" fill="#835BFF"/>
<path d="M272 18.5C272 17.6716 272.672 17 273.5 17C274.328 17 275 17.6716 275 18.5C275 19.3284 274.328 20 273.5 20C272.672 20 272 19.3284 272 18.5Z" fill="#835BFF"/>
<path d="M255 18.5C255 17.6715 255.672 17 256.5 17C257.328 17 258 17.6715 258 18.5C258 19.3284 257.328 20 256.5 20C255.672 20 255 19.3284 255 18.5Z" fill="#835BFF"/>
<path d="M238 18.5C238 17.6715 238.672 17 239.5 17C240.328 17 241 17.6715 241 18.5C241 19.3284 240.328 20 239.5 20C238.672 20 238 19.3284 238 18.5Z" fill="#835BFF"/>
<path d="M323 35.5C323 34.6716 323.672 34 324.5 34C325.328 34 326 34.6716 326 35.5C326 36.3284 325.328 37 324.5 37C323.672 37 323 36.3284 323 35.5Z" fill="#835BFF"/>
<path d="M306 35.5C306 34.6716 306.672 34 307.5 34C308.328 34 309 34.6716 309 35.5C309 36.3284 308.328 37 307.5 37C306.672 37 306 36.3284 306 35.5Z" fill="#835BFF"/>
<path d="M289 35.5C289 34.6716 289.672 34 290.5 34C291.328 34 292 34.6716 292 35.5C292 36.3284 291.328 37 290.5 37C289.672 37 289 36.3284 289 35.5Z" fill="#835BFF"/>
<path d="M272 35.5C272 34.6716 272.672 34 273.5 34C274.328 34 275 34.6716 275 35.5C275 36.3284 274.328 37 273.5 37C272.672 37 272 36.3284 272 35.5Z" fill="#835BFF"/>
<path d="M255 35.5C255 34.6715 255.672 34 256.5 34C257.328 34 258 34.6715 258 35.5C258 36.3284 257.328 37 256.5 37C255.672 37 255 36.3284 255 35.5Z" fill="#835BFF"/>
<path d="M238 35.5C238 34.6715 238.672 34 239.5 34C240.328 34 241 34.6715 241 35.5C241 36.3284 240.328 37 239.5 37C238.672 37 238 36.3284 238 35.5Z" fill="#835BFF"/>
<path d="M221 1.49997C221 0.671547 221.672 -2.69549e-05 222.5 -2.68825e-05C223.328 -2.68101e-05 224 0.671547 224 1.49997C224 2.3284 223.328 2.99997 222.5 2.99997C221.672 2.99997 221 2.3284 221 1.49997Z" fill="#835BFF"/>
<path d="M204 1.49997C204 0.671545 204.672 -2.84411e-05 205.5 -2.83687e-05C206.328 -2.82963e-05 207 0.671545 207 1.49997C207 2.3284 206.328 2.99997 205.5 2.99997C204.672 2.99997 204 2.3284 204 1.49997Z" fill="#835BFF"/>
<path d="M187 1.49997C187 0.671544 187.672 -2.99273e-05 188.5 -2.98549e-05C189.328 -2.97825e-05 190 0.671544 190 1.49997C190 2.3284 189.328 2.99997 188.5 2.99997C187.672 2.99997 187 2.3284 187 1.49997Z" fill="#835BFF"/>
<path d="M170 1.49997C170 0.671542 170.672 -3.14135e-05 171.5 -3.13411e-05C172.328 -3.12686e-05 173 0.671542 173 1.49997C173 2.3284 172.328 2.99997 171.5 2.99997C170.672 2.99997 170 2.32839 170 1.49997Z" fill="#835BFF"/>
<path d="M153 1.49997C153 0.671541 153.672 -3.28997e-05 154.5 -3.28273e-05C155.328 -3.27548e-05 156 0.671541 156 1.49997C156 2.32839 155.328 2.99997 154.5 2.99997C153.672 2.99997 153 2.32839 153 1.49997Z" fill="#835BFF"/>
<path d="M136 1.49997C136 0.671539 136.672 -3.43859e-05 137.5 -3.43134e-05C138.328 -3.4241e-05 139 0.671539 139 1.49997C139 2.32839 138.328 2.99997 137.5 2.99997C136.672 2.99997 136 2.32839 136 1.49997Z" fill="#835BFF"/>
<path d="M221 18.5C221 17.6715 221.672 17 222.5 17C223.328 17 224 17.6715 224 18.5C224 19.3284 223.328 20 222.5 20C221.672 20 221 19.3284 221 18.5Z" fill="#835BFF"/>
<path d="M204 18.5C204 17.6715 204.672 17 205.5 17C206.328 17 207 17.6715 207 18.5C207 19.3284 206.328 20 205.5 20C204.672 20 204 19.3284 204 18.5Z" fill="#835BFF"/>
<path d="M187 18.5C187 17.6715 187.672 17 188.5 17C189.328 17 190 17.6715 190 18.5C190 19.3284 189.328 20 188.5 20C187.672 20 187 19.3284 187 18.5Z" fill="#835BFF"/>
<path d="M170 18.5C170 17.6715 170.672 17 171.5 17C172.328 17 173 17.6715 173 18.5C173 19.3284 172.328 20 171.5 20C170.672 20 170 19.3284 170 18.5Z" fill="#835BFF"/>
<path d="M153 18.5C153 17.6715 153.672 17 154.5 17C155.328 17 156 17.6715 156 18.5C156 19.3284 155.328 20 154.5 20C153.672 20 153 19.3284 153 18.5Z" fill="#835BFF"/>
<path d="M136 18.5C136 17.6715 136.672 17 137.5 17C138.328 17 139 17.6715 139 18.5C139 19.3284 138.328 20 137.5 20C136.672 20 136 19.3284 136 18.5Z" fill="#835BFF"/>
<path d="M221 35.5C221 34.6715 221.672 34 222.5 34C223.328 34 224 34.6715 224 35.5C224 36.3284 223.328 37 222.5 37C221.672 37 221 36.3284 221 35.5Z" fill="#835BFF"/>
<path d="M204 35.5C204 34.6715 204.672 34 205.5 34C206.328 34 207 34.6715 207 35.5C207 36.3284 206.328 37 205.5 37C204.672 37 204 36.3284 204 35.5Z" fill="#835BFF"/>
<path d="M187 35.5C187 34.6715 187.672 34 188.5 34C189.328 34 190 34.6715 190 35.5C190 36.3284 189.328 37 188.5 37C187.672 37 187 36.3284 187 35.5Z" fill="#835BFF"/>
<path d="M170 35.5C170 34.6715 170.672 34 171.5 34C172.328 34 173 34.6715 173 35.5C173 36.3284 172.328 37 171.5 37C170.672 37 170 36.3284 170 35.5Z" fill="#835BFF"/>
<path d="M153 35.5C153 34.6715 153.672 34 154.5 34C155.328 34 156 34.6715 156 35.5C156 36.3284 155.328 37 154.5 37C153.672 37 153 36.3284 153 35.5Z" fill="#835BFF"/>
<path d="M136 35.5C136 34.6715 136.672 34 137.5 34C138.328 34 139 34.6715 139 35.5C139 36.3284 138.328 37 137.5 37C136.672 37 136 36.3284 136 35.5Z" fill="#835BFF"/>
<path d="M119 1.49996C119 0.671538 119.672 -3.58721e-05 120.5 -3.57996e-05C121.328 -3.57272e-05 122 0.671538 122 1.49996C122 2.32839 121.328 2.99996 120.5 2.99996C119.672 2.99996 119 2.32839 119 1.49996Z" fill="#835BFF"/>
<path d="M102 1.49996C102 0.671536 102.672 -3.73582e-05 103.5 -3.72858e-05C104.328 -3.72134e-05 105 0.671536 105 1.49996C105 2.32839 104.328 2.99996 103.5 2.99996C102.672 2.99996 102 2.32839 102 1.49996Z" fill="#835BFF"/>
<path d="M85 1.49996C85 0.671535 85.6716 -3.88444e-05 86.5 -3.8772e-05C87.3284 -3.86996e-05 88 0.671535 88 1.49996C88 2.32839 87.3284 2.99996 86.5 2.99996C85.6716 2.99996 85 2.32839 85 1.49996Z" fill="#835BFF"/>
<path d="M68 1.49996C68 0.671533 68.6716 -4.03306e-05 69.5 -4.02582e-05C70.3284 -4.01858e-05 71 0.671534 71 1.49996C71 2.32839 70.3284 2.99996 69.5 2.99996C68.6716 2.99996 68 2.32839 68 1.49996Z" fill="#835BFF"/>
<path d="M51 1.49996C51 0.671532 51.6716 -4.18168e-05 52.5 -4.17444e-05C53.3284 -4.1672e-05 54 0.671532 54 1.49996C54 2.32838 53.3284 2.99996 52.5 2.99996C51.6716 2.99996 51 2.32838 51 1.49996Z" fill="#835BFF"/>
<path d="M34 1.49996C34 0.67153 34.6716 -4.3303e-05 35.5 -4.32306e-05C36.3284 -4.31581e-05 37 0.671531 37 1.49996C37 2.32838 36.3284 2.99996 35.5 2.99996C34.6716 2.99996 34 2.32838 34 1.49996Z" fill="#835BFF"/>
<path d="M119 18.5C119 17.6715 119.672 17 120.5 17C121.328 17 122 17.6715 122 18.5C122 19.3284 121.328 20 120.5 20C119.672 20 119 19.3284 119 18.5Z" fill="#835BFF"/>
<path d="M102 18.5C102 17.6715 102.672 17 103.5 17C104.328 17 105 17.6715 105 18.5C105 19.3284 104.328 20 103.5 20C102.672 20 102 19.3284 102 18.5Z" fill="#835BFF"/>
<path d="M85 18.5C85 17.6715 85.6716 17 86.5 17C87.3284 17 88 17.6715 88 18.5C88 19.3284 87.3284 20 86.5 20C85.6716 20 85 19.3284 85 18.5Z" fill="#835BFF"/>
<path d="M68 18.5C68 17.6715 68.6716 17 69.5 17C70.3284 17 71 17.6715 71 18.5C71 19.3284 70.3284 20 69.5 20C68.6716 20 68 19.3284 68 18.5Z" fill="#835BFF"/>
<path d="M51 18.5C51 17.6715 51.6716 17 52.5 17C53.3284 17 54 17.6715 54 18.5C54 19.3284 53.3284 20 52.5 20C51.6716 20 51 19.3284 51 18.5Z" fill="#835BFF"/>
<path d="M34 18.5C34 17.6715 34.6716 17 35.5 17C36.3284 17 37 17.6715 37 18.5C37 19.3284 36.3284 20 35.5 20C34.6716 20 34 19.3284 34 18.5Z" fill="#835BFF"/>
<path d="M119 35.5C119 34.6715 119.672 34 120.5 34C121.328 34 122 34.6715 122 35.5C122 36.3284 121.328 37 120.5 37C119.672 37 119 36.3284 119 35.5Z" fill="#835BFF"/>
<path d="M102 35.5C102 34.6715 102.672 34 103.5 34C104.328 34 105 34.6715 105 35.5C105 36.3284 104.328 37 103.5 37C102.672 37 102 36.3284 102 35.5Z" fill="#835BFF"/>
<path d="M85 35.5C85 34.6715 85.6716 34 86.5 34C87.3284 34 88 34.6715 88 35.5C88 36.3284 87.3284 37 86.5 37C85.6716 37 85 36.3284 85 35.5Z" fill="#835BFF"/>
<path d="M68 35.5C68 34.6715 68.6716 34 69.5 34C70.3284 34 71 34.6715 71 35.5C71 36.3284 70.3284 37 69.5 37C68.6716 37 68 36.3284 68 35.5Z" fill="#835BFF"/>
<path d="M51 35.5C51 34.6715 51.6716 34 52.5 34C53.3284 34 54 34.6715 54 35.5C54 36.3284 53.3284 37 52.5 37C51.6716 37 51 36.3284 51 35.5Z" fill="#835BFF"/>
<path d="M34 35.5C34 34.6715 34.6716 34 35.5 34C36.3284 34 37 34.6715 37 35.5C37 36.3284 36.3284 37 35.5 37C34.6716 37 34 36.3284 34 35.5Z" fill="#835BFF"/>
<path d="M17 1.49996C17 0.671529 17.6716 -4.47892e-05 18.5 -4.47168e-05C19.3284 -4.46443e-05 20 0.671529 20 1.49996C20 2.32838 19.3284 2.99996 18.5 2.99996C17.6716 2.99996 17 2.32838 17 1.49996Z" fill="#835BFF"/>
<path d="M3.10351e-06 1.49995C3.17593e-06 0.671527 0.671573 -4.62754e-05 1.5 -4.62029e-05C2.32843 -4.61305e-05 3 0.671528 3 1.49995C3 2.32838 2.32843 2.99995 1.5 2.99995C0.671573 2.99995 3.03109e-06 2.32838 3.10351e-06 1.49995Z" fill="#835BFF"/>
<path d="M17 18.5C17 17.6715 17.6716 17 18.5 17C19.3284 17 20 17.6715 20 18.5C20 19.3284 19.3284 20 18.5 20C17.6716 20 17 19.3284 17 18.5Z" fill="#835BFF"/>
<path d="M1.61732e-06 18.5C1.68974e-06 17.6715 0.671572 17 1.5 17C2.32843 17 3 17.6715 3 18.5C3 19.3284 2.32843 20 1.5 20C0.671571 20 1.5449e-06 19.3284 1.61732e-06 18.5Z" fill="#835BFF"/>
<path d="M17 35.5C17 34.6715 17.6716 34 18.5 34C19.3284 34 20 34.6715 20 35.5C20 36.3284 19.3284 37 18.5 37C17.6716 37 17 36.3284 17 35.5Z" fill="#835BFF"/>
<path d="M1.31134e-07 35.5C2.03558e-07 34.6715 0.67157 34 1.5 34C2.32843 34 3 34.6715 3 35.5C3 36.3284 2.32843 37 1.5 37C0.67157 37 5.87107e-08 36.3284 1.31134e-07 35.5Z" fill="#835BFF"/>
</g>
</svg>
